<svg xmlns="http://www.w3.org/2000/svg" width="60" height="60" viewBox="0 0 60 60" fill="none"><rect width="60" height="60" rx="30" fill="#E60013"></rect><g clip-path="url(#clip0_93_39)"><path d="M15 35.8978C15.0562 35.2969 15.1218 34.6967 15.167 34.095C15.3905 31.1175 15.6057 28.1394 15.8304 25.1621C15.9108 24.0978 16.589 23.2708 17.5479 23.0372C18.5495 22.7932 19.5342 23.2043 20.0935 24.1206C20.7877 25.2581 21.469 26.4039 22.1562 27.5459C22.2216 27.6546 22.2894 27.7617 22.3678 27.8887C23.1143 27.5863 23.8464 27.2899 24.5783 26.9933C25.1489 26.7621 25.7177 26.5267 26.29 26.2999C27.5199 25.8126 28.8058 26.3458 29.2834 27.5369C29.7601 28.7259 29.2105 30.0347 27.9872 30.5437C26.237 31.2719 24.4788 31.9808 22.7179 32.682C22.3328 32.8354 21.9279 32.9737 21.5209 33.0224C21.1957 33.0613 20.8535 32.9536 20.4935 32.9077C20.4935 33.1469 20.4772 33.4148 20.5045 33.6779C20.5117 33.7474 20.6485 33.8462 20.7349 33.8571C21.771 33.9883 22.8087 34.1066 23.8463 34.226C25.2696 34.3897 26.3062 35.5033 26.3193 36.9622C26.3415 39.4531 26.3278 41.9443 26.326 44.4353C26.3258 44.7851 26.1385 45.0001 25.858 44.9999C25.5718 44.9997 25.3817 44.7706 25.3814 44.406C25.3795 42.0142 25.3807 39.6224 25.3803 37.2306C25.3801 35.9802 24.814 35.3223 23.5894 35.1699C22.4368 35.0264 21.2827 34.8952 20.1288 34.7619C19.684 34.7104 19.5431 34.5646 19.5405 34.1163C19.5369 33.5208 19.5535 32.9248 19.5318 32.3302C19.5242 32.1238 19.4674 31.8976 19.3659 31.7201C18.9345 30.9659 18.4759 30.2279 18.0315 29.4813C17.8516 29.1789 17.8956 28.9068 18.1362 28.7513C18.3781 28.5949 18.6492 28.674 18.8284 28.9687C19.2795 29.7111 19.7244 30.4575 20.1724 31.2019C20.6753 32.0376 21.2296 32.2484 22.1218 31.8919C23.9725 31.1524 25.8182 30.3996 27.6612 29.6401C28.3675 29.349 28.6801 28.5866 28.4058 27.8997C28.1322 27.2145 27.3913 26.8964 26.6788 27.1804C25.3175 27.7232 23.961 28.2787 22.6029 28.8297C22.0274 29.0631 21.9426 29.035 21.6133 28.488C20.8392 27.2024 20.0696 25.914 19.2902 24.6317C18.8477 23.9037 17.9577 23.7117 17.3135 24.1921C16.957 24.4579 16.8026 24.8307 16.7705 25.2666C16.5889 27.7299 16.4082 30.1933 16.2253 32.6566C16.1393 33.814 16.0578 34.9718 15.9576 36.128C15.8746 37.0864 16.4965 37.9612 17.4355 38.1031C18.7092 38.2956 19.9887 38.4483 21.2651 38.6233C21.6656 38.6782 21.7932 38.8273 21.7936 39.2269C21.7956 40.9538 21.7958 42.6807 21.7934 44.4075C21.7928 44.8209 21.5257 45.0758 21.2017 44.9797C20.9349 44.9007 20.8473 44.702 20.8479 44.4339C20.8512 42.9552 20.8494 41.4764 20.8493 39.9977C20.8493 39.8505 20.8493 39.7033 20.8493 39.5343C19.9268 39.4125 19.0281 39.295 18.1298 39.1747C17.7915 39.1293 17.4463 39.1081 17.1174 39.0231C16.0396 38.7442 15.3644 38.0382 15.0708 36.9507C15.0508 36.8767 15.0238 36.8046 15 36.7315C15 36.4536 15 36.1757 15 35.8978Z" fill="white"></path><path d="M39.2198 39.4842C39.2198 39.6251 39.2212 39.7426 39.2196 39.8601C39.1996 41.3586 39.1803 42.8571 39.1567 44.3555C39.1547 44.4817 39.1651 44.6491 39.0944 44.7239C38.9782 44.8469 38.8054 44.9697 38.6473 44.9834C38.4267 45.0025 38.2742 44.8303 38.2255 44.6028C38.2051 44.5076 38.2124 44.4053 38.2137 44.3064C38.2353 42.6193 38.2574 40.9322 38.2808 39.2452C38.2878 38.7401 38.3879 38.6145 38.8821 38.5531C39.9864 38.416 41.0908 38.2764 42.1977 38.1647C43.4618 38.0371 44.1149 37.2575 44.0491 35.9752C43.9259 33.577 43.8264 31.1776 43.7182 28.7787C43.6748 27.8171 43.64 26.8551 43.5911 25.8938C43.5518 25.1202 43.0551 24.489 42.3549 24.2985C41.605 24.0944 40.8669 24.389 40.4385 25.0925C39.6323 26.4162 38.8351 27.7457 38.0427 29.0781C37.8602 29.385 37.6012 29.5368 37.2651 29.5852C35.7678 29.801 34.2702 30.0143 32.7737 30.2351C32.0175 30.3467 31.5538 30.9697 31.6401 31.7375C31.7176 32.4266 32.3244 32.939 33.052 32.863C33.9347 32.7708 34.8123 32.6273 35.6915 32.5014C36.6757 32.3603 37.6587 32.2094 38.6435 32.0719C39.1679 31.9988 39.5338 31.7167 39.8005 31.2616C40.2498 30.4949 40.7116 29.7356 41.1728 28.9762C41.3623 28.6641 41.6726 28.587 41.9106 28.78C42.1137 28.9448 42.1447 29.1977 41.9798 29.4747C41.5302 30.2297 41.0677 30.977 40.6283 31.7381C40.5352 31.8993 40.4797 32.1049 40.4738 32.2922C40.4547 32.9069 40.4699 33.5227 40.4651 34.138C40.4618 34.5522 40.3184 34.7094 39.9134 34.757C38.7015 34.8995 37.4899 35.0445 36.2773 35.1799C35.3131 35.2876 34.6308 36.0273 34.6282 37.0148C34.6217 39.4365 34.6265 41.8582 34.6239 44.2799C34.6237 44.4169 34.6204 44.5619 34.5777 44.689C34.5031 44.9112 34.323 45.0202 34.0963 44.9921C33.8737 44.9644 33.7199 44.8297 33.6893 44.59C33.6756 44.4823 33.6788 44.3721 33.6788 44.2631C33.6783 41.9803 33.7313 39.6959 33.661 37.4154C33.6084 35.7074 34.5758 34.2856 36.5893 34.1651C37.494 34.111 38.3933 33.9657 39.2949 33.8597C39.3606 33.852 39.4244 33.8275 39.4998 33.8081V32.9311C37.373 33.2312 35.2527 33.5333 33.1313 33.8273C32.7044 33.8865 32.2839 33.8119 31.9166 33.587C31.6573 33.4282 31.3968 33.3918 31.1099 33.4017C30.8292 33.4115 30.5478 33.4038 30.2303 33.4038C30.2303 33.5472 30.2303 33.6627 30.2303 33.7783C30.2303 37.2818 30.2307 40.7853 30.2288 44.2888C30.2287 44.4162 30.2262 44.5499 30.19 44.6697C30.1218 44.8951 29.9482 45.0124 29.7212 44.9937C29.484 44.9742 29.3231 44.8349 29.2931 44.5814C29.2792 44.4637 29.2833 44.3436 29.2833 44.2246C29.2829 40.7509 29.283 37.2771 29.283 33.8034C29.283 33.6859 29.283 33.5684 29.283 33.4193C29.1571 33.4134 29.0542 33.4046 28.9513 33.4045C27.7695 33.4035 26.5878 33.4048 25.406 33.4033C25.0192 33.4028 24.7968 33.2184 24.8054 32.9137C24.8137 32.6233 25.0356 32.4445 25.4015 32.4442C27.1009 32.4428 28.8003 32.4436 30.4997 32.4435C30.6035 32.4435 30.7073 32.4435 30.7351 32.4435C30.7351 31.9523 30.6642 31.4795 30.7492 31.0376C30.9507 29.9908 31.7482 29.3851 32.9437 29.2278C34.2886 29.0508 35.6308 28.8514 36.9717 28.6454C37.1006 28.6256 37.256 28.5185 37.3253 28.4053C38.1092 27.1258 38.8682 25.8305 39.6547 24.5528C40.6041 23.0105 42.6883 22.8293 43.8723 24.1734C44.2773 24.6331 44.503 25.1771 44.5314 25.791C44.6763 28.9233 44.8141 32.056 44.951 35.1887C44.9722 35.6738 45.0335 36.1669 44.9761 36.6439C44.8086 38.0365 43.7999 38.9671 42.3813 39.1119C41.857 39.1655 41.3339 39.2316 40.8104 39.2934C40.2971 39.3541 39.7839 39.4165 39.2198 39.4842Z" fill="white"></path><path d="M29.7664 15.0012C30.8209 15.0011 31.8755 15 32.93 15.0015C33.8841 15.0028 34.4689 15.587 34.4726 16.5519C34.4773 17.7724 34.4771 18.9929 34.4727 20.2133C34.4691 21.1792 33.8865 21.7657 32.9323 21.7674C31.3896 21.7701 29.8468 21.7731 28.3041 21.7636C28.0313 21.7619 27.8201 21.8403 27.6198 22.0277C27.2179 22.404 26.7971 22.7594 26.3862 23.1259C26.1202 23.3632 25.8228 23.4447 25.4938 23.2934C25.1528 23.1366 25.0224 22.8451 25.0229 22.4744C25.0252 20.4899 25.0215 18.5054 25.0252 16.5209C25.0268 15.6196 25.6308 15.0057 26.5149 15.0022C27.5988 14.9979 28.6826 15.0012 29.7664 15.0012ZM25.9692 22.2164C26.3338 21.8939 26.6534 21.6361 26.944 21.3482C27.3466 20.9493 27.8104 20.7892 28.3735 20.7971C29.8771 20.818 31.3812 20.8056 32.8851 20.8033C33.3835 20.8026 33.5259 20.6528 33.5262 20.1426C33.527 18.9418 33.5282 17.741 33.5254 16.5402C33.5245 16.1482 33.3585 15.9758 32.9778 15.9631C32.773 15.9562 32.5677 15.9615 32.3626 15.9615C30.4388 15.9615 28.515 15.9604 26.5912 15.9624C26.1713 15.9628 25.9731 16.1262 25.9719 16.5025C25.966 18.3776 25.9692 20.2528 25.9692 22.2164Z" fill="white"></path><path d="M44.212 18.4326C44.1838 20.3383 42.6701 21.8229 40.7898 21.789C38.9861 21.7565 37.5175 20.2191 37.5347 18.3812C37.5524 16.4963 39.0744 14.9742 40.9135 15.0022C42.7523 15.0302 44.2395 16.577 44.212 18.4326ZM43.2603 18.3941C43.2581 17.0564 42.1988 15.9736 40.8828 15.9638C39.5664 15.954 38.4835 17.0571 38.4867 18.4048C38.4898 19.7457 39.5494 20.8266 40.8642 20.83C42.195 20.8336 43.2624 19.7484 43.2603 18.3941Z" fill="white"></path><path d="M15.7952 18.4025C15.7907 16.5382 17.2867 15.0091 19.1221 15.002C20.9536 14.9948 22.4601 16.5141 22.473 18.3814C22.486 20.2586 20.9814 21.7919 19.1282 21.7903C17.2861 21.7886 15.7997 20.2778 15.7952 18.4025ZM21.5192 18.3881C21.5139 17.0511 20.4479 15.9668 19.1358 15.9635C17.8157 15.9603 16.7399 17.0618 16.7456 18.4108C16.7514 19.7636 17.8244 20.8396 19.1581 20.8299C20.4702 20.8204 21.5245 19.7301 21.5192 18.3881Z" fill="white"></path><path d="M29.779 17.9822C29.1053 17.9822 28.4316 17.9842 27.7579 17.9814C27.3799 17.9799 27.179 17.8129 27.1768 17.509C27.1745 17.2034 27.38 17.0224 27.7478 17.0218C29.1049 17.0194 30.462 17.0196 31.8192 17.0216C32.1877 17.0221 32.4015 17.2012 32.4047 17.499C32.408 17.7991 32.1982 17.9796 31.8293 17.9813C31.1459 17.9845 30.4624 17.9822 29.779 17.9822Z" fill="white"></path><path d="M28.6905 19.7469C28.3684 19.747 28.0461 19.7522 27.7241 19.7456C27.3763 19.7384 27.1774 19.5572 27.1765 19.2616C27.1756 18.9646 27.3679 18.7858 27.7232 18.782C28.3772 18.775 29.0314 18.7747 29.6854 18.7827C30.0252 18.7868 30.2361 18.9905 30.2259 19.2752C30.2163 19.5461 30.0052 19.7373 29.6863 19.745C29.3545 19.753 29.0225 19.7468 28.6905 19.7469Z" fill="white"></path></g><defs><clipPath id="clip0_93_39"><rect width="30" height="30" fill="white" transform="translate(15 15)"></rect></clipPath></defs></svg>