<svg xmlns="http://www.w3.org/2000/svg" width="177" height="24" viewBox="0 0 177 24" fill="none"><path fill-rule="evenodd" clip-rule="evenodd" d="M126.84 0.85498H133.173L133.172 8.83107H142.665V0.85498H148.998V23.1663H142.665V13.8534H133.172V23.1663H126.84V0.85498Z" fill="white"></path><path fill-rule="evenodd" clip-rule="evenodd" d="M88.5106 10.5136H100.135C100.147 10.8753 100.16 11.0789 100.16 11.1137C100.16 14.271 100.096 16.6379 99.9687 18.2274C99.7794 20.7966 98.6895 22.3669 96.7046 22.9035C95.8447 23.1335 94.8613 23.2892 93.7557 23.3695C92.6537 23.4497 90.9673 23.4881 88.7129 23.4881C85.8395 23.4881 83.808 23.3838 82.6199 23.179C81.4196 22.979 80.4841 22.5646 79.7931 21.9429C79.3319 21.5177 78.9642 20.9715 78.6994 20.3103C78.4491 19.6384 78.2839 18.7592 78.1796 17.6704C78.085 16.6558 78.0322 14.6507 78.0322 11.6551C78.0322 9.61643 78.073 8.08565 78.1593 7.04597C78.2359 6.01226 78.3928 5.09236 78.6311 4.26467C79.1174 2.54584 80.1332 1.50017 81.7047 1.12885C83.4116 0.725199 86.0347 0.526367 89.5801 0.526367C91.6919 0.526367 93.352 0.594642 94.5726 0.733586C95.8004 0.882112 96.7969 1.11209 97.5983 1.44028C98.8643 1.97089 99.6404 3.13515 99.9051 4.9055C100.05 5.78707 100.121 6.02184 100.124 7.56699H94.0324C94.0264 6.93216 94.0049 7.17292 93.9509 6.95013C93.8995 6.72734 93.8012 6.54168 93.6443 6.38597C93.3652 6.11527 92.77 5.94039 91.8548 5.87571C91.0079 5.81222 90.7719 5.77868 89.1429 5.77868C87.3822 5.77868 87.1271 5.8338 86.3725 5.94039C85.625 6.0422 85.1064 6.25181 84.8286 6.54767C84.5555 6.84231 84.3638 7.35139 84.2692 8.03772C84.1674 8.73963 84.1194 10.2393 84.1194 11.9186C84.1194 13.8015 84.1674 15.1766 84.2692 15.9216C84.3638 16.6702 84.5518 17.2056 84.8274 17.4979C85.1064 17.7961 85.467 17.9746 85.9101 18.0345C86.3581 18.0932 86.7534 18.1758 89.1155 18.1866C91.4319 18.2046 91.8416 18.1339 92.3351 18.1028C92.8298 18.062 93.2335 17.9626 93.5257 17.7961C93.7712 17.6632 93.9509 17.4835 94.0515 17.1661C94.1521 16.8427 94.2024 15.8509 94.2024 15.2077C94.2024 15.1071 94.2024 14.9023 94.1964 14.592H88.5106L88.5106 10.5136Z" fill="white"></path><path fill-rule="evenodd" clip-rule="evenodd" d="M52.5548 0.854004H62.7097L68.8902 16.7547H69.1897V0.854004H75.7872V23.1653H65.7077L59.4864 7.25501H59.1044L59.139 23.1641H52.5548V0.854004Z" fill="white"></path><path fill-rule="evenodd" clip-rule="evenodd" d="M0.75 0.853027H7.08395V8.82911H16.5705V0.853027H22.9127V23.1643H16.5705V13.8515H7.08272V23.1643H0.75V0.853027Z" fill="white"></path><path fill-rule="evenodd" clip-rule="evenodd" d="M25.1576 23.164H31.991L37.3164 7.03688H38.1836L41.5937 18.2303L36.6468 18.241L38.5585 23.2083L50.3052 23.2095L42.7233 0.84668H32.7121L25.1576 23.164Z" fill="white"></path><path fill-rule="evenodd" clip-rule="evenodd" d="M151.256 23.1659H158.077L163.395 7.03882H164.285L167.697 18.2322L162.746 18.243L164.664 23.2102L176.394 23.2114L168.805 0.848633H158.805L151.256 23.1659Z" fill="white"></path><path fill-rule="evenodd" clip-rule="evenodd" d="M118.21 15.541H124.541C124.573 16.6262 124.59 17.3281 124.59 17.6563C124.59 19.374 124.386 19.7273 123.99 20.6963C123.554 21.7815 122.691 22.523 121.408 22.917C120.133 23.3195 117.922 23.5063 114.777 23.5063C111.484 23.5063 109.132 23.4189 107.719 23.2656C106.327 23.0979 105.267 22.7865 104.555 22.3122C103.923 21.8869 103.438 21.3228 103.137 20.6029C102.826 19.8746 102.616 18.8973 102.524 17.6372C102.441 16.6262 102.406 14.796 102.406 12.1489C102.406 9.56405 102.441 7.69909 102.524 6.5564C102.604 5.41251 102.749 4.52494 102.974 3.8949C103.438 2.48151 104.43 1.55561 105.902 1.13639C107.376 0.719556 110.35 0.506348 114.823 0.506348C117.066 0.507545 118.685 0.57703 119.696 0.703984C120.716 0.838137 121.529 1.08248 122.125 1.44062C122.919 1.91974 123.473 2.62884 123.792 3.57869C124.116 4.51656 124.277 4.90584 124.277 6.74924C124.277 6.84267 124.274 7.21878 124.27 7.856H117.935C117.912 7.11816 117.874 7.28824 117.826 7.03431C117.781 6.78397 117.682 6.57796 117.545 6.41505C117.344 6.18388 116.825 6.02216 115.999 5.91077C115.185 5.81255 114.976 5.75147 113.313 5.75147C111.654 5.75147 111.553 5.80299 110.917 5.8976C110.286 5.99822 109.833 6.17788 109.573 6.44739C109.252 6.77558 109.035 7.32297 108.913 8.09555C108.801 8.87172 108.731 10.4277 108.731 12.1225C108.731 13.8018 108.792 15.3158 108.902 16.0118C109.002 16.7005 109.226 17.1976 109.537 17.4982C109.833 17.7965 110.305 17.9977 110.953 18.0995C111.601 18.1917 111.714 18.2421 113.345 18.2421C115.369 18.2421 115.685 18.2049 116.356 18.1199C117.021 18.0289 117.486 17.8276 117.719 17.5402C118.028 17.1557 118.192 16.9413 118.21 15.541Z" fill="white"></path></svg>