<svg xmlns="http://www.w3.org/2000/svg" width="60" height="60" viewBox="0 0 60 60" fill="none"><rect width="60" height="60" rx="30" fill="#E60013"></rect><g clip-path="url(#clip0_8_17)"><path d="M36.3925 36.9801C36.2881 37.2899 36.2065 37.5892 36.0883 37.8733C35.4332 39.4483 33.7909 40.4473 32.1035 40.3077C30.3607 40.1634 28.9037 38.9046 28.5108 37.2158C28.4901 37.1271 28.3834 36.9915 28.3153 36.9906C27.2007 36.9765 26.0859 36.9806 24.9771 36.9806C24.8804 37.2767 24.807 37.56 24.6972 37.8284C23.9967 39.5406 22.2865 40.484 20.6057 40.2919C18.6923 40.0732 17.2972 38.6989 17.042 36.8608C16.8691 35.6153 17.235 34.5381 18.0507 33.594C18.1463 33.4833 18.2145 33.3083 18.2156 33.1626C18.2274 31.6168 18.2324 30.0709 18.2179 28.5252C18.2127 27.9734 18.4424 27.608 19.1077 27.6295C20.0197 27.6591 20.9334 27.6369 21.8649 27.6369V21.0349C21.7682 21.0349 21.672 21.0349 21.5757 21.0349C21.0271 21.0348 20.4783 21.0388 19.9297 21.0335C19.4346 21.0287 19.1443 20.7646 19.1538 20.3411C19.1631 19.9261 19.4477 19.68 19.927 19.68C24.3165 19.6793 28.706 19.6793 33.0955 19.68C33.5538 19.6801 33.8106 19.8839 33.8454 20.2667C33.8878 20.7318 33.6266 21.0203 33.1318 21.0322C32.6964 21.0427 32.2606 21.0344 31.7579 21.0344C31.9904 21.3663 32.161 21.6696 32.3879 21.9221C32.9971 22.6001 33.1726 23.3679 33.1533 24.2794C33.0982 26.8759 33.1363 29.4743 33.1297 32.072C33.1291 32.2868 33.1686 32.3847 33.4063 32.438C34.0014 32.5714 34.5301 32.8609 35.0585 33.3042V32.9483C35.0585 29.3719 35.0582 25.7955 35.059 22.2191C35.0591 21.7351 35.2163 21.5039 35.5961 21.4155C35.9899 21.3238 36.3613 21.5798 36.4097 21.9814C36.4217 22.0807 36.4158 22.1824 36.4158 22.2829C36.416 26.6185 36.416 30.9541 36.416 35.2897C36.416 35.3971 36.416 35.5045 36.416 35.6431C36.55 35.6431 36.657 35.6431 36.7639 35.6431C38.602 35.6432 40.4402 35.654 42.2782 35.6374C42.8877 35.6318 43.1177 36.1955 42.9434 36.5868C42.8425 36.8132 42.6758 36.9535 42.4208 36.9688C42.3022 36.9759 42.1833 36.9796 42.0646 36.9796C40.2813 36.9803 38.4981 36.9801 36.7148 36.9801C36.6058 36.9801 36.4968 36.9801 36.3925 36.9801ZM28.4359 35.6431C29.253 33.4352 29.504 33.1871 31.7891 32.3212C31.792 32.28 31.7979 32.2349 31.7979 32.1899C31.7984 29.3269 31.7998 26.464 31.7931 23.6011C31.7929 23.4844 31.7379 23.3523 31.67 23.2539C31.2031 22.577 30.7208 21.9108 30.2561 21.2324C30.1486 21.0755 30.029 21.0311 29.8485 21.0315C27.7452 21.0368 25.6418 21.0347 23.5385 21.0354C23.4496 21.0355 23.3606 21.0434 23.2659 21.0479V27.6369C23.3979 27.6369 23.5072 27.6369 23.6164 27.6369C24.7047 27.637 25.7929 27.6342 26.8811 27.6389C27.2573 27.6405 27.5085 27.8835 27.529 28.2418C27.5524 28.6502 27.3406 28.9187 26.9508 28.9654C26.8333 28.9795 26.7137 28.9799 26.5951 28.9799C24.3637 28.9807 22.1324 28.9805 19.9011 28.9805C19.7959 28.9805 19.6908 28.9805 19.5806 28.9805V32.5585C20.7709 32.1478 21.9137 32.2247 22.9969 32.847C24.0802 33.4694 24.7044 34.4321 24.9605 35.6431L28.4359 35.6431ZM23.6453 36.3194C23.6501 34.843 22.4901 33.6713 21.0164 33.6639C19.5392 33.6565 18.3635 34.8149 18.3547 36.2866C18.3457 37.7769 19.5118 38.9548 20.9973 38.9559C22.4731 38.957 23.6406 37.7946 23.6453 36.3194ZM29.7659 36.2949C29.7588 37.7721 30.9148 38.9449 32.3889 38.9559C33.8656 38.967 35.0434 37.8115 35.0564 36.3388C35.0697 34.8484 33.9067 33.669 32.4191 33.664C30.9439 33.6592 29.773 34.8202 29.7659 36.2949Z" fill="white"></path></g><defs><clipPath id="clip0_8_17"><rect width="26" height="20.6412" fill="white" transform="translate(17 19.6794)"></rect></clipPath></defs></svg>