<svg xmlns="http://www.w3.org/2000/svg" width="60" height="60" viewBox="0 0 60 60" fill="none"><rect width="60" height="60" rx="30" fill="#E60013"></rect><g clip-path="url(#clip0_93_15)"><path d="M36.8534 15C37.0459 15.1061 37.2549 15.1907 37.4276 15.3227C37.8449 15.6414 38.0128 16.0878 38.0129 16.6037C38.0133 17.8531 38.0151 19.1026 38.0109 20.3521C38.0103 20.525 38.0675 20.6416 38.1786 20.7837C38.331 20.9785 38.4675 21.2389 38.4815 21.4788C38.5213 22.1597 38.5025 22.8446 38.4931 23.5278C38.4856 24.0741 38.0766 24.4824 37.5234 24.4915C36.8206 24.5031 36.1173 24.4887 35.4145 24.5014C35.2354 24.5046 35.0449 24.5388 34.8807 24.6085C33.6911 25.1132 32.507 25.6306 31.2785 26.1624C32.0505 26.4969 32.782 26.8135 33.5132 27.1307C34.04 27.3592 34.5651 27.5916 35.0935 27.8164C35.3258 27.9153 35.5015 28.0553 35.5012 28.3288C35.5009 28.6019 35.3248 28.7416 35.0933 28.8415C33.9407 29.3387 32.7897 29.8398 31.6384 30.3399C31.5321 30.3861 31.4271 30.435 31.2874 30.498C32.2273 30.9052 33.1373 31.2993 34.047 31.6937C34.3952 31.8447 34.7416 31.9999 35.0916 32.1467C35.3241 32.2441 35.5008 32.3844 35.5012 32.6579C35.5015 32.9306 35.3273 33.0711 35.0949 33.1714C33.8974 33.6882 32.7019 34.2096 31.5059 34.7298C31.4441 34.7566 31.3841 34.7875 31.2907 34.8321C32.3711 35.2992 33.4289 35.741 34.472 36.2151C34.9081 36.4134 35.3403 36.5386 35.8217 36.4945C36.8768 36.398 37.5997 37.2666 37.499 38.1715C37.4885 38.2656 37.4976 38.3619 37.4976 38.4869C38.2324 38.4869 38.9422 38.4895 39.6518 38.4828C39.7225 38.4821 39.7939 38.4268 39.8629 38.3928C41.1044 37.7809 42.3252 37.8253 43.467 38.6036C44.5996 39.3757 45.094 40.494 44.9853 41.8565C44.8771 43.2144 43.8529 44.4354 42.5254 44.8399C41.1711 45.2525 39.6916 44.8141 38.805 43.7205C38.6738 43.5586 38.5452 43.4984 38.3405 43.4986C32.7749 43.5038 27.2093 43.5032 21.6438 43.5007C21.4695 43.5007 21.3451 43.5351 21.2195 43.6839C20.2948 44.7787 19.1099 45.2214 17.7153 44.8949C16.2871 44.5605 15.4129 43.6158 15.0622 42.1906C15.0464 42.1265 15.021 42.0648 15 42.0019C15 41.6505 15 41.299 15 40.9476C15.0208 40.8962 15.0492 40.8466 15.0612 40.7932C15.5486 38.6141 17.8221 37.3925 19.8236 38.2616C20.2132 38.4307 20.5891 38.5044 21.0032 38.4919C21.4965 38.4771 21.9906 38.4884 22.4997 38.4884C22.4997 38.2927 22.4986 38.1377 22.4999 37.9826C22.5066 37.1599 23.1383 36.4762 23.9536 36.5074C24.6308 36.5333 25.2362 36.377 25.8332 36.086C26.3228 35.8474 26.8325 35.6501 27.3324 35.4325C27.7811 35.2373 28.2287 35.0395 28.7129 34.8269C28.5722 34.7631 28.4757 34.7178 28.378 34.6754C27.2259 34.175 26.0749 33.6722 24.9205 33.1774C24.6774 33.0732 24.4909 32.9367 24.4962 32.6486C24.5012 32.3753 24.6816 32.2434 24.9144 32.1451C25.587 31.861 26.2555 31.5672 26.9252 31.2763C27.5106 31.0221 28.0955 30.7667 28.713 30.4977C28.6033 30.4475 28.5334 30.414 28.4625 30.3832C27.275 29.867 26.0883 29.3491 24.899 28.8372C24.6648 28.7364 24.4932 28.5962 24.496 28.3234C24.4988 28.0506 24.6745 27.9141 24.909 27.8164C25.4033 27.6106 25.8927 27.393 26.3839 27.1795C27.1506 26.8463 27.917 26.5125 28.7255 26.1606C27.4388 25.6053 26.1977 25.0675 24.9535 24.5369C24.8598 24.497 24.7442 24.4987 24.6387 24.4982C23.9163 24.4942 23.1937 24.5031 22.4714 24.4913C21.9184 24.4823 21.5111 24.0733 21.5039 23.5262C21.4949 22.8431 21.4758 22.1583 21.5156 21.4774C21.5296 21.2377 21.6664 20.9773 21.819 20.7827C21.9303 20.6405 21.9869 20.5238 21.9863 20.3511C21.9821 19.1018 21.9842 17.8525 21.9841 16.6032C21.9841 16.0392 22.1895 15.5745 22.6621 15.2514C22.8106 15.1499 22.9826 15.0828 23.1438 15C27.7137 15 32.2835 15 36.8534 15ZM21.8733 42.4629H38.1251C37.8421 41.405 38.0204 40.4277 38.5922 39.5099H21.3973C21.9869 40.4395 22.1461 41.4111 21.8733 42.4629ZM37.4764 23.4819V21.5247H22.5157V23.4819H37.4764ZM34.9696 18.0224H25.0275V20.4812H34.9696V18.0224ZM23.986 20.481C23.986 20.36 23.986 20.2552 23.986 20.1504C23.9861 19.4769 23.9822 18.8034 23.9873 18.1299C23.9928 17.39 24.3945 16.9936 25.1308 16.9935C28.3723 16.993 31.6138 16.9931 34.8553 16.9935C35.609 16.9936 36.0057 17.3884 36.0102 18.1486C36.0143 18.8221 36.0104 19.4956 36.012 20.1691C36.0122 20.2719 36.0233 20.3746 36.0295 20.4795H36.9661C36.9724 20.3857 36.9819 20.3095 36.9819 20.2332C36.9828 19.0229 36.9841 17.8125 36.9816 16.6022C36.9808 16.1778 36.8042 16.0004 36.3744 16.0002C32.1272 15.9985 27.8801 15.9986 23.6329 16C23.1861 16.0002 23.016 16.1736 23.0153 16.6209C23.0134 17.8215 23.0142 19.0221 23.0155 20.2227C23.0156 20.3068 23.0284 20.3908 23.0358 20.481H23.986ZM41.5139 39.007C40.1249 39.0017 39.0179 40.0942 39.0139 41.4743C39.0099 42.8559 40.1074 43.9736 41.482 43.9877C42.834 44.0016 43.9806 42.87 43.9958 41.5067C44.0109 40.1451 42.8861 39.0123 41.5139 39.007ZM20.9833 41.4863C20.9826 40.102 19.8818 39.0052 18.4951 39.0071C17.1203 39.0089 15.9968 40.1298 16.0013 41.4949C16.0058 42.8541 17.1463 43.9906 18.5032 43.988C19.8715 43.9855 20.9841 42.8631 20.9833 41.4863ZM23.4989 38.4659H36.4837C36.5423 37.6306 36.415 37.4915 35.6138 37.4915C32.2872 37.4915 28.9606 37.4915 25.634 37.4915C25.117 37.4915 24.5999 37.4869 24.083 37.4932C23.7023 37.4979 23.5125 37.6919 23.4996 38.0725C23.4953 38.1978 23.4989 38.3233 23.4989 38.4659ZM26.2779 32.6597C27.273 33.0912 28.2442 33.4692 29.1737 33.9312C29.7541 34.2196 30.2408 34.2292 30.8257 33.9343C31.7525 33.4671 32.7259 33.0921 33.7208 32.6601C32.7341 32.2314 31.7701 31.8586 30.8511 31.3966C30.2608 31.0998 29.765 31.0923 29.1714 31.3897C28.2441 31.8544 27.2718 32.2292 26.2779 32.6597ZM33.7259 28.3291C32.4844 27.7917 31.2989 27.2754 30.1088 26.7703C30.0282 26.7361 29.9029 26.7634 29.8141 26.8C29.3827 26.9775 28.9567 27.1683 28.5287 27.3538C27.7937 27.6724 27.0587 27.9906 26.2766 28.3293C27.522 28.8675 28.7165 29.3848 29.9132 29.8971C29.9663 29.9198 30.0473 29.915 30.1018 29.8917C31.2901 29.3825 32.4765 28.8689 33.7259 28.3291ZM27.586 24.5007C27.5801 24.5187 27.5742 24.5368 27.5683 24.5549C28.351 24.894 29.1323 25.2368 29.9189 25.5665C29.992 25.5971 30.1076 25.5637 30.19 25.5286C30.8793 25.2346 31.5657 24.9338 32.2521 24.6332C32.3147 24.6058 32.3718 24.5659 32.4858 24.5007H27.586ZM32.4279 36.4831L32.4341 36.4313C31.6568 36.0957 30.8808 35.7568 30.0998 35.4298C30.0255 35.3987 29.9106 35.4209 29.8303 35.4551C29.1319 35.7526 28.437 36.058 27.7416 36.3626C27.6793 36.3899 27.6214 36.4274 27.5194 36.4831H32.4279Z" fill="white"></path></g><defs><clipPath id="clip0_93_15"><rect width="30" height="30" fill="white" transform="translate(15 15)"></rect></clipPath></defs></svg>