<svg xmlns="http://www.w3.org/2000/svg" width="60" height="60" viewBox="0 0 60 60" fill="none"><rect width="60" height="60" rx="30" fill="#E60013"></rect><g clip-path="url(#clip0_8_45)"><path d="M21.0794 31.5251C22.0471 31.5251 22.9846 31.5083 23.9213 31.5296C24.9532 31.553 25.9835 31.6082 26.9778 31.9376C27.9489 32.2593 28.7195 32.8197 29.1951 33.7441C29.3573 34.0593 29.6295 34.1472 29.9573 34.1463C30.8856 34.1437 31.814 34.1452 32.7423 34.1456C33.9841 34.1461 34.6003 34.595 34.9791 35.7732C34.9884 35.8021 35.0074 35.828 35.0277 35.8664C36.8437 35.2269 38.657 34.5883 40.4703 33.9496C41.2438 33.6771 42.0151 33.3983 42.7911 33.133C44.1411 32.6714 45.5549 33.7046 45.4984 35.1261C45.4713 35.805 45.1757 36.3732 44.5902 36.7423C40.6337 39.2368 36.6849 41.7439 32.707 44.204C31.1034 45.1957 29.4164 45.1375 27.7787 44.2387C25.6554 43.0735 23.5513 41.8734 21.4386 40.6888C21.3493 40.6387 21.257 40.5939 21.1346 40.5302C21.1191 40.7112 21.1115 40.855 21.0938 40.9976C20.9938 41.8043 20.4082 42.3297 19.598 42.3321C18.4165 42.3356 17.235 42.3348 16.0535 42.3325C15.1316 42.3307 14.5065 41.713 14.5034 40.7833C14.4972 38.9262 14.5014 37.0692 14.5014 35.2121C14.5014 33.9671 14.5003 32.722 14.5018 31.4769C14.5031 30.4367 15.0904 29.8427 16.1213 29.8404C17.2078 29.8381 18.2944 29.8394 19.381 29.84C20.4638 29.8407 21.0157 30.367 21.0661 31.4448C21.0675 31.4754 21.076 31.5057 21.0794 31.5251ZM21.1304 32.5616C21.1211 32.6627 21.1124 32.7138 21.1123 32.765C21.1115 34.8962 21.1143 37.0275 21.1064 39.1587C21.1056 39.3578 21.2086 39.4292 21.3536 39.5104C23.5861 40.7596 25.8225 42.0021 28.0455 43.268C29.5647 44.1332 31.0364 44.1019 32.5139 43.168C34.9807 41.6087 37.4589 40.0675 39.9318 38.5179C41.253 37.69 42.5728 36.8598 43.894 36.0318C44.2086 35.8347 44.4703 35.5946 44.5026 35.1994C44.5759 34.3014 43.887 33.7734 43.0256 34.0756C40.3675 35.0083 37.7115 35.9471 35.0579 36.8923C34.9336 36.9365 34.8139 37.0469 34.7356 37.1574C34.3379 37.7178 33.8064 38.0668 33.1208 38.0743C31.2223 38.095 29.3234 38.0852 27.4247 38.0799C27.0835 38.079 26.8963 37.8834 26.8989 37.5796C26.9014 37.2775 27.0906 37.0995 27.4345 37.0884C27.6664 37.081 27.8986 37.0866 28.1307 37.0866C29.7657 37.0863 31.4007 37.0889 33.0357 37.0842C33.5261 37.0828 33.9947 36.6878 34.0502 36.2508C34.1138 35.7494 33.7785 35.2818 33.2538 35.1546C33.1328 35.1252 33.0039 35.1184 32.8786 35.118C31.8554 35.1151 30.8321 35.1244 29.809 35.1129C29.2211 35.1062 28.7211 34.8723 28.4531 34.3368C28.0041 33.4399 27.2636 32.9741 26.3229 32.7642C24.6128 32.3825 22.884 32.5402 21.1304 32.5616ZM20.1243 36.1273C20.1243 34.5562 20.1254 32.985 20.1235 31.4139C20.123 31.0059 19.9505 30.8148 19.5622 30.8129C18.392 30.8074 17.2218 30.8073 16.0516 30.8131C15.6715 30.8149 15.4983 30.9995 15.4981 31.3843C15.4965 34.516 15.4965 37.6477 15.498 40.7795C15.4982 41.1721 15.6576 41.3409 16.0502 41.3429C17.2204 41.3488 18.3906 41.3492 19.5608 41.3432C20.0164 41.3408 20.1243 41.2159 20.1244 40.7458C20.1245 39.2063 20.1244 37.6668 20.1243 36.1273Z" fill="white"></path><path d="M39.6161 18.5841C39.5228 18.8235 39.4438 19.0285 39.3628 19.2327C39.3279 19.3207 39.3036 19.4177 39.2494 19.4925C38.8525 20.0406 39.0767 20.5638 39.3156 21.0803C39.3525 21.1602 39.4657 21.2177 39.556 21.2575C39.9409 21.4268 40.342 21.5638 40.7124 21.7595C40.8511 21.8328 41.0045 22.0304 41.0106 22.1772C41.0418 22.9249 41.026 23.6746 41.0285 24.4236C41.0294 24.6899 40.8591 24.819 40.6432 24.9073C40.2927 25.0504 39.9424 25.1947 39.5867 25.3236C39.3858 25.3964 39.2944 25.5308 39.1873 25.716C38.8888 26.2321 38.9532 26.7005 39.2289 27.1875C39.3266 27.36 39.3731 27.5608 39.4619 27.7392C39.5959 28.0086 39.5265 28.2184 39.3219 28.4189C38.8473 28.8841 38.3766 29.3534 37.9129 29.8294C37.7004 30.0476 37.4788 30.1009 37.2039 29.9587C37.0457 29.8768 36.8757 29.8173 36.7106 29.7488C35.8772 29.4027 35.8753 29.3987 35.0738 29.7611C34.9835 29.802 34.9049 29.9106 34.8617 30.0062C34.693 30.38 34.5298 30.7571 34.3862 31.1411C34.2898 31.3991 34.1131 31.5003 33.8555 31.5004C33.1593 31.5007 32.4631 31.496 31.767 31.5029C31.4824 31.5057 31.3147 31.3631 31.2128 31.1172C31.076 30.7868 30.9299 30.4596 30.8105 30.1229C30.7305 29.8973 30.5769 29.7991 30.3741 29.6827C29.8784 29.3982 29.4328 29.453 28.9638 29.7203C28.7645 29.8339 28.534 29.8912 28.3246 29.9889C28.1 30.0937 27.917 30.0415 27.7513 29.8759C27.2514 29.3762 26.753 28.8751 26.2512 28.3773C26.0736 28.201 26.0244 28.0092 26.1337 27.7763C26.2096 27.6146 26.2504 27.434 26.3409 27.2821C26.6638 26.7401 26.7348 26.1965 26.3792 25.6461C26.3068 25.5341 26.2055 25.4165 26.0893 25.3615C25.7283 25.191 25.3566 25.042 24.9835 24.8991C24.7343 24.8037 24.6173 24.64 24.619 24.3735C24.6235 23.6666 24.6251 22.9597 24.6181 22.2529C24.6154 21.9787 24.7568 21.822 24.9899 21.7249C25.3393 21.5792 25.6877 21.4301 26.042 21.297C26.2329 21.2253 26.3081 21.087 26.4109 20.9183C26.7368 20.3834 26.6061 19.9129 26.3716 19.3892C25.9316 18.4064 25.9028 18.5999 26.6804 17.8156C27.0221 17.471 27.3704 17.1329 27.7079 16.7843C27.8983 16.5875 28.1002 16.5186 28.3598 16.6399C28.5213 16.7154 28.6929 16.7692 28.8601 16.8325C29.7231 17.1592 29.7249 17.1634 30.5376 16.81C30.6282 16.7706 30.7087 16.6618 30.7513 16.5662C30.9139 16.2014 31.0709 15.8331 31.2066 15.4576C31.2985 15.203 31.4649 15.0764 31.7235 15.0745C32.4407 15.0693 33.158 15.0666 33.8752 15.0748C34.1431 15.0779 34.3269 15.2292 34.4298 15.4763C34.5753 15.8259 34.7316 16.1716 34.8618 16.5268C34.937 16.7318 35.0786 16.8146 35.2595 16.923C35.7735 17.2311 36.2417 17.1535 36.7281 16.8872C36.9024 16.7918 37.1012 16.7418 37.2781 16.6503C37.5493 16.5099 37.7595 16.5885 37.9583 16.7897C38.4252 17.2626 38.901 17.7269 39.3636 18.2039C39.4678 18.3113 39.5331 18.4566 39.6161 18.5841ZM28.2335 29.0443C28.3131 29.0119 28.3722 28.9899 28.4297 28.9642C28.7755 28.8101 29.1137 28.6344 29.4698 28.5098C29.6274 28.4547 29.8344 28.4605 29.9954 28.5121C30.3641 28.6302 30.7304 28.77 31.0736 28.9477C31.2631 29.0458 31.4468 29.2118 31.5574 29.3934C31.7691 29.7409 31.8374 30.2639 32.1317 30.4481C32.4291 30.6344 32.9287 30.4872 33.3386 30.5088C33.5504 30.5199 33.6643 30.4572 33.7349 30.2511C33.8403 29.9432 33.9475 29.6288 34.1106 29.3502C34.2173 29.1679 34.4025 29.004 34.5907 28.9033C34.8942 28.7409 35.2367 28.6532 35.5486 28.5043C35.8091 28.38 36.047 28.3787 36.3031 28.501C36.6068 28.6459 36.9209 28.7689 37.2237 28.9153C37.3763 28.9891 37.4848 28.9922 37.6105 28.8561C37.8679 28.5774 38.153 28.3241 38.4062 28.0419C38.4688 27.9722 38.4992 27.8142 38.4655 27.7275C38.3207 27.3555 38.1304 27.0008 37.9912 26.627C37.9389 26.4863 37.939 26.297 37.9866 26.1536C38.1154 25.7655 38.2594 25.3783 38.4444 25.0147C38.5358 24.8352 38.707 24.6641 38.8848 24.5684C39.1692 24.4154 39.4877 24.3242 39.7948 24.2153C39.939 24.1641 40.0142 24.094 40.0078 23.9226C39.9936 23.5434 40.0156 23.1626 39.9947 22.784C39.9895 22.69 39.8972 22.5601 39.8106 22.5187C39.4884 22.3648 39.1352 22.2704 38.8272 22.0948C38.6441 21.9904 38.4847 21.7966 38.3839 21.6063C38.223 21.3022 38.0913 20.9751 38.0023 20.643C37.9438 20.4251 37.9279 20.1653 37.9898 19.9525C38.0888 19.6123 38.2622 19.2926 38.4165 18.9701C38.4847 18.8277 38.4821 18.7298 38.3579 18.6143C38.0801 18.3559 37.8275 18.0698 37.5438 17.8186C37.4645 17.7483 37.2977 17.7119 37.1966 17.743C36.8256 17.8572 36.4702 18.0223 36.0987 18.1346C35.9541 18.1783 35.7696 18.1699 35.6254 18.1205C35.2285 17.9844 34.8354 17.8304 34.4571 17.6495C34.302 17.5753 34.1438 17.437 34.0658 17.287C33.9165 16.9997 33.8379 16.6763 33.699 16.3826C33.654 16.2873 33.5159 16.1839 33.4142 16.1771C33.0467 16.1524 32.6763 16.1766 32.3076 16.1634C32.1278 16.1569 32.0449 16.2286 31.9851 16.3893C31.8641 16.7143 31.7526 17.0484 31.5822 17.3474C31.4832 17.5212 31.2971 17.6717 31.1155 17.7659C30.8096 17.9247 30.4672 18.0118 30.1572 18.164C29.896 18.2922 29.6625 18.2943 29.405 18.1694C29.0929 18.018 28.7761 17.8728 28.4502 17.7558C28.3521 17.7206 28.1837 17.7496 28.1047 17.8166C27.8239 18.055 27.5757 18.3314 27.2993 18.5755C27.1484 18.7086 27.1163 18.8235 27.2083 19.0085C27.3814 19.3567 27.5425 19.7125 27.6807 20.0758C27.7274 20.1987 27.7274 20.3669 27.6837 20.4916C27.5412 20.8977 27.3881 21.3028 27.1987 21.6884C27.1184 21.8517 26.9599 22.0077 26.798 22.0932C26.4834 22.2593 26.136 22.3621 25.8141 22.5159C25.7254 22.5583 25.627 22.6858 25.6219 22.7791C25.6004 23.1682 25.6027 23.5597 25.6208 23.9491C25.6249 24.0357 25.7103 24.1571 25.7901 24.1946C26.1132 24.3465 26.4654 24.4426 26.7733 24.6182C26.9556 24.7222 27.1136 24.9159 27.2144 25.1055C27.3761 25.4097 27.4659 25.7513 27.6153 26.0631C27.7349 26.3126 27.7426 26.5403 27.6256 26.788C27.4728 27.1112 27.3222 27.4367 27.1974 27.7712C27.1641 27.8604 27.1912 28.0191 27.254 28.0889C27.5145 28.3788 27.7982 28.6477 28.0759 28.9219C28.1255 28.9709 28.1866 29.0083 28.2335 29.0443Z" fill="white"></path><path d="M29.3668 23.3526C29.3682 21.4621 30.9158 19.92 32.8103 19.9216C34.6934 19.9232 36.259 21.4889 36.2531 23.3647C36.2473 25.2396 34.6674 26.8141 32.7981 26.8081C30.9168 26.8021 29.3654 25.2398 29.3668 23.3526ZM30.352 23.3071C30.3502 24.6642 31.435 25.7539 32.7932 25.7594C34.1509 25.7649 35.2532 24.6778 35.2572 23.3292C35.2613 21.9532 34.1723 20.8596 32.7995 20.8611C31.4421 20.8626 30.3538 21.9502 30.352 23.3071Z" fill="white"></path></g><defs><clipPath id="clip0_8_45"><rect width="31" height="29.8608" fill="white" transform="translate(14.5 15.0696)"></rect></clipPath></defs></svg>