<svg xmlns="http://www.w3.org/2000/svg" width="171" height="51" viewBox="0 0 171 51" fill="none"><g clip-path="url(#clip0_8_224)"><path d="M2.56863 29.3111C0.313326 27.0477 0.371031 23.3199 2.69747 20.9839L21.3221 2.28462C23.6485 -0.0508729 27.3626 -0.109925 29.6179 2.15293C31.8732 4.41595 31.8152 8.144 29.4888 10.4798L10.8645 29.1791C8.53806 31.5149 4.82361 31.5741 2.56863 29.3111Z" fill="white"></path><path d="M2.40429 48.4636C0.148982 46.2006 0.207016 42.4724 2.53345 40.1367L21.1577 21.4375C23.4842 19.1016 27.1983 19.0426 29.4536 21.3058C31.7089 23.5688 31.6512 27.2968 29.3247 29.6327L10.7001 48.3317C8.37371 50.6676 4.65959 50.7268 2.40429 48.4636Z" fill="white"></path><path d="M21.0027 48.8468C18.7474 46.5838 18.8051 42.8559 21.1318 40.5199L39.7561 21.821C42.0825 19.485 45.7967 19.4261 48.052 21.689C50.3073 23.952 50.2496 27.68 47.9231 30.0159L29.2985 48.7151C26.9721 51.0509 23.258 51.11 21.0027 48.8468Z" fill="white"></path><path fill-rule="evenodd" clip-rule="evenodd" d="M76.8419 24.5559H73.2533C72.9949 23.0411 72.091 22.2751 70.542 22.2578C69.7636 22.2751 69.1456 22.5047 68.688 22.9464C68.23 23.388 67.9025 23.9389 67.7056 24.5987C67.5086 25.2584 67.413 25.9241 67.4177 26.5953C67.413 27.2489 67.506 27.8959 67.6968 28.5354C67.8881 29.1759 68.2068 29.7095 68.6531 30.1373C69.1 30.5652 69.7035 30.7873 70.4648 30.804C71.3174 30.7925 71.9874 30.5439 72.4752 30.0583C72.9634 29.5726 73.2653 28.9174 73.3821 28.0927H76.9197C76.6678 29.8682 75.9773 31.2228 74.8473 32.1561C73.7176 33.0895 72.2655 33.5594 70.4903 33.5662C69.1392 33.5562 67.9602 33.2609 66.953 32.682C65.9461 32.1024 65.1627 31.3007 64.6034 30.2767C64.0438 29.2529 63.7599 28.0687 63.7512 26.7245C63.7552 25.3267 64.023 24.0862 64.5544 23.003C65.0866 21.9194 65.8589 21.0672 66.8728 20.446C67.8864 19.8243 69.1181 19.5076 70.5678 19.4954C71.6327 19.4945 72.6245 19.6799 73.5428 20.0501C74.4611 20.4204 75.2177 20.9803 75.8122 21.7292C76.4067 22.4781 76.75 23.4203 76.8419 24.5559Z" fill="white"></path><path fill-rule="evenodd" clip-rule="evenodd" d="M82.9835 14.7714V17.7925H79.317V14.7714H82.9835ZM79.317 33.2059V19.8577H82.9835V33.2059H79.317Z" fill="white"></path><path fill-rule="evenodd" clip-rule="evenodd" d="M85.7148 33.1801V19.8319H89.1743V21.6395H89.226C89.7058 20.9504 90.2889 20.4179 90.9757 20.0418C91.6618 19.6655 92.4385 19.4754 93.3058 19.4707C94.157 19.4634 94.9263 19.633 95.6131 19.9804C96.3002 20.3278 96.8307 20.8978 97.2045 21.6912C97.595 21.0901 98.1308 20.5747 98.8119 20.1451C99.4926 19.7152 100.3 19.4905 101.233 19.4707C102.678 19.4535 103.847 19.8168 104.737 20.5617C105.628 21.3058 106.086 22.5345 106.112 24.2469V33.1801H102.446V25.6151C102.457 25.0144 102.418 24.4692 102.328 23.9802C102.239 23.491 102.033 23.101 101.712 22.8099C101.39 22.5189 100.886 22.3694 100.2 22.3624C99.5191 22.3729 99.0011 22.5408 98.6458 22.8663C98.2901 23.1916 98.0496 23.61 97.9234 24.1218C97.7976 24.6336 97.7386 25.1743 97.7466 25.7443V33.1801H94.0802V25.6926C94.0959 25.164 94.0761 24.647 94.0211 24.1411C93.9661 23.6351 93.7816 23.2152 93.4682 22.8816C93.1548 22.5479 92.619 22.3746 91.8598 22.3624C91.6017 22.352 91.2803 22.4241 90.8955 22.5793C90.5117 22.7341 90.1671 23.0344 89.8631 23.4791C89.5588 23.9238 89.3981 24.5759 89.3813 25.4346V33.1801L85.7148 33.1801Z" fill="white"></path><path fill-rule="evenodd" clip-rule="evenodd" d="M111.264 25.0989H117.228C117.072 24.1675 116.766 23.4618 116.312 22.9818C115.858 22.5022 115.191 22.2612 114.311 22.259C113.543 22.2749 112.939 22.4437 112.5 22.7658C112.061 23.0875 111.748 23.4668 111.561 23.9038C111.374 24.3401 111.275 24.7386 111.264 25.0989ZM120.895 27.4225H111.264C111.389 29.7119 112.482 30.8395 114.544 30.8048C115.293 30.7842 115.93 30.5995 116.454 30.2497C116.978 29.9003 117.305 29.5087 117.435 29.0747H120.663C120.139 30.6401 119.347 31.7825 118.284 32.5022C117.222 33.222 115.932 33.577 114.414 33.5676C112.289 33.5329 110.627 32.8791 109.428 31.6052C108.229 30.3316 107.619 28.6446 107.598 26.545C107.607 25.1981 107.896 23.9959 108.465 22.9391C109.033 21.8815 109.826 21.0468 110.846 20.4348C111.864 19.8222 113.054 19.5091 114.414 19.4962C115.93 19.5182 117.182 19.8992 118.172 20.6391C119.161 21.3789 119.884 22.3471 120.339 23.5435C120.795 24.7393 120.98 26.0323 120.895 27.4225Z" fill="white"></path><path fill-rule="evenodd" clip-rule="evenodd" d="M123.034 33.2059V19.8577H126.52V22.3363H126.572C126.932 21.4836 127.503 20.8005 128.286 20.2869C129.068 19.7735 129.917 19.51 130.832 19.4962C131.112 19.5006 131.378 19.5439 131.632 19.6254V23.0335C131.458 22.9941 131.252 22.9629 131.013 22.9399C130.774 22.9171 130.542 22.905 130.316 22.9043C128.99 22.9362 128.052 23.3566 127.501 24.166C126.95 24.9756 126.684 25.984 126.701 27.1903V33.2059L123.034 33.2059Z" fill="white"></path><path fill-rule="evenodd" clip-rule="evenodd" d="M139.007 15.8561V19.8577H141.693V22.3107H139.007V28.9199C138.994 29.5268 139.098 29.9399 139.317 30.1595C139.536 30.3791 139.95 30.4821 140.557 30.469C140.935 30.4733 141.314 30.4391 141.693 30.366V33.2319C141.378 33.2822 141.033 33.3165 140.66 33.3351C140.287 33.3534 139.916 33.3619 139.549 33.3609C138.79 33.371 138.094 33.2933 137.46 33.1284C136.826 32.9635 136.317 32.651 135.933 32.1903C135.548 31.7302 135.351 31.0616 135.341 30.1851V22.3107H133.12V19.8577H135.341V15.8561H139.007Z" fill="white"></path><path fill-rule="evenodd" clip-rule="evenodd" d="M146.483 25.0989H152.447C152.29 24.1675 151.985 23.4618 151.531 22.9818C151.077 22.5022 150.41 22.2612 149.53 22.259C148.762 22.2749 148.158 22.4437 147.719 22.7658C147.279 23.0875 146.966 23.4668 146.779 23.9038C146.592 24.3401 146.494 24.7386 146.483 25.0989ZM156.114 27.4225H146.483C146.608 29.7119 147.701 30.8395 149.762 30.8048C150.512 30.7842 151.149 30.5995 151.672 30.2497C152.197 29.9003 152.524 29.5087 152.654 29.0747H155.881C155.358 30.6401 154.565 31.7825 153.503 32.5022C152.44 33.222 151.151 33.577 149.633 33.5676C147.508 33.5329 145.846 32.8791 144.647 31.6052C143.447 30.3316 142.838 28.6446 142.817 26.545C142.826 25.1981 143.115 23.9959 143.683 22.9391C144.252 21.8815 145.045 21.0468 146.064 20.4348C147.083 19.8222 148.273 19.5091 149.633 19.4962C151.148 19.5182 152.401 19.8992 153.39 20.6391C154.38 21.3789 155.102 22.3471 155.558 23.5435C156.014 24.7393 156.199 26.0323 156.114 27.4225Z" fill="white"></path><path fill-rule="evenodd" clip-rule="evenodd" d="M156.885 33.2059L161.687 26.1833L157.298 19.8577H161.48L163.83 23.3432L166.154 19.8577H170.208L165.818 26.106L170.75 33.2059H166.567L163.778 28.9976L160.99 33.2059H156.885Z" fill="white"></path></g><defs><clipPath id="clip0_8_224"><rect width="170" height="50.0127" fill="white" transform="translate(0.75 0.493652)"></rect></clipPath></defs></svg>