<svg xmlns="http://www.w3.org/2000/svg" width="32" height="30" viewBox="0 0 32 30" fill="none"><g clip-path="url(#clip0_93_180)"><path d="M7.07935 16.5253C8.04708 16.5253 8.9846 16.5086 9.92126 16.5298C10.9532 16.5533 11.9835 16.6085 12.9778 16.9379C13.9489 17.2596 14.7195 17.82 15.1951 18.7444C15.3573 19.0595 15.6295 19.1474 15.9573 19.1465C16.8856 19.144 17.814 19.1454 18.7423 19.1458C19.9841 19.1463 20.6003 19.5952 20.9791 20.7734C20.9884 20.8024 21.0074 20.8282 21.0277 20.8667C22.8437 20.2271 24.657 19.5886 26.4703 18.9499C27.2438 18.6774 28.0151 18.3985 28.7911 18.1332C30.1411 17.6716 31.5549 18.7049 31.4984 20.1264C31.4713 20.8052 31.1757 21.3735 30.5902 21.7426C26.6337 24.237 22.6849 26.7442 18.707 29.2042C17.1034 30.196 15.4164 30.1377 13.7787 29.239C11.6554 28.0737 9.55126 26.8736 7.43859 25.689C7.34928 25.639 7.25702 25.5941 7.13458 25.5305C7.11911 25.7114 7.11152 25.8553 7.09383 25.9978C6.99376 26.8046 6.4082 27.33 5.59799 27.3324C4.41649 27.3359 3.23497 27.335 2.05347 27.3327C1.1316 27.331 0.506495 26.7132 0.50338 25.7835C0.497157 23.9265 0.501437 22.0694 0.501412 20.2124C0.501395 18.9673 0.500263 17.7222 0.501807 16.4772C0.503098 15.4369 1.09041 14.8429 2.12127 14.8407C3.20783 14.8384 4.2944 14.8396 5.38096 14.8403C6.46384 14.8409 7.01573 15.3673 7.06608 16.445C7.06751 16.4756 7.07603 16.5059 7.07935 16.5253ZM7.1304 17.5619C7.12114 17.6629 7.11236 17.7141 7.11234 17.7653C7.11147 19.8965 7.11434 22.0277 7.10637 24.1589C7.10563 24.358 7.20862 24.4295 7.35362 24.5106C9.58611 25.7599 11.8225 27.0023 14.0455 28.2683C15.5647 29.1334 17.0364 29.1022 18.5139 28.1683C20.9807 26.609 23.4589 25.0678 25.9318 23.5181C27.253 22.6902 28.5728 21.8601 29.894 21.0321C30.2086 20.8349 30.4703 20.5948 30.5026 20.1996C30.5759 19.3017 29.887 18.7736 29.0256 19.0759C26.3675 20.0086 23.7115 20.9474 21.0579 21.8925C20.9336 21.9368 20.8139 22.0472 20.7356 22.1576C20.3379 22.718 19.8064 23.067 19.1208 23.0745C17.2223 23.0953 15.3234 23.0854 13.4247 23.0802C13.0835 23.0792 12.8963 22.8837 12.8989 22.5798C12.9014 22.2778 13.0906 22.0998 13.4345 22.0887C13.6664 22.0812 13.8986 22.0868 14.1307 22.0868C15.7657 22.0866 17.4007 22.0891 19.0357 22.0844C19.5261 22.083 19.9947 21.688 20.0502 21.251C20.1138 20.7497 19.7785 20.2821 19.2538 20.1548C19.1328 20.1254 19.0039 20.1186 18.8786 20.1182C17.8554 20.1153 16.8321 20.1246 15.809 20.1131C15.2211 20.1065 14.7211 19.8725 14.4531 19.337C14.0041 18.4402 13.2636 17.9744 12.3229 17.7644C10.6128 17.3827 8.88401 17.5404 7.1304 17.5619ZM6.12431 21.1275C6.12431 19.5564 6.12544 17.9853 6.12353 16.4141C6.12303 16.0062 5.95052 15.815 5.56216 15.8132C4.39199 15.8076 3.22176 15.8076 2.05159 15.8133C1.67145 15.8152 1.49828 15.9998 1.49809 16.3845C1.49651 19.5162 1.4965 22.648 1.49802 25.7797C1.49821 26.1724 1.65764 26.3412 2.05025 26.3431C3.22041 26.3491 4.39065 26.3495 5.56081 26.3434C6.01638 26.3411 6.1243 26.2162 6.12436 25.7461C6.12453 24.2066 6.12442 22.6671 6.12431 21.1275Z" fill="white"></path><path d="M25.6161 3.5843C25.5228 3.82371 25.4438 4.02873 25.3628 4.23297C25.3279 4.32098 25.3036 4.41798 25.2494 4.49278C24.8525 5.04082 25.0767 5.56409 25.3155 6.08058C25.3525 6.16039 25.4657 6.21798 25.556 6.25771C25.9409 6.42705 26.342 6.56401 26.7124 6.75971C26.8511 6.83301 27.0045 7.03064 27.0106 7.17745C27.0417 7.92519 27.026 8.67486 27.0285 9.42384C27.0294 9.69011 26.8591 9.81928 26.6431 9.9075C26.2927 10.0506 25.9424 10.1949 25.5867 10.3238C25.3858 10.3966 25.2944 10.531 25.1873 10.7163C24.8888 11.2323 24.9532 11.7008 25.2289 12.1877C25.3266 12.3602 25.3731 12.561 25.4618 12.7394C25.5959 13.0088 25.5265 13.2186 25.3219 13.4191C24.8473 13.8843 24.3766 14.3536 23.9129 14.8297C23.7004 15.0478 23.4788 15.1011 23.2039 14.9589C23.0456 14.877 22.8757 14.8176 22.7106 14.749C21.8771 14.4029 21.8752 14.3989 21.0738 14.7614C20.9835 14.8022 20.9049 14.9108 20.8617 15.0065C20.693 15.3803 20.5298 15.7574 20.3862 16.1414C20.2898 16.3993 20.1131 16.5006 19.8555 16.5007C19.1593 16.5009 18.4631 16.4962 17.7669 16.5032C17.4824 16.506 17.3147 16.3634 17.2128 16.1174C17.076 15.7871 16.9299 15.4598 16.8105 15.1232C16.7305 14.8976 16.5769 14.7993 16.3741 14.683C15.8784 14.3985 15.4328 14.4532 14.9638 14.7206C14.7645 14.8341 14.534 14.8914 14.3246 14.9891C14.1 15.0939 13.917 15.0418 13.7513 14.8761C13.2514 14.3764 12.7529 13.8753 12.2512 13.3775C12.0735 13.2012 12.0244 13.0094 12.1337 12.7765C12.2096 12.6148 12.2503 12.4342 12.3408 12.2823C12.6638 11.7403 12.7348 11.1968 12.3791 10.6463C12.3068 10.5343 12.2055 10.4167 12.0892 10.3618C11.7283 10.1913 11.3566 10.0422 10.9835 9.89938C10.7343 9.80399 10.6173 9.64029 10.619 9.37374C10.6235 8.66689 10.6251 7.95994 10.6181 7.25312C10.6154 6.97898 10.7568 6.82226 10.9899 6.72511C11.3393 6.57943 11.6877 6.4303 12.042 6.29727C12.2329 6.22559 12.3081 6.08721 12.4109 5.91857C12.7368 5.3836 12.6061 4.91314 12.3716 4.38949C11.9315 3.40667 11.9028 3.60015 12.6804 2.81582C13.022 2.47121 13.3704 2.13314 13.7078 1.7845C13.8983 1.58775 14.1002 1.51884 14.3598 1.64015C14.5213 1.71562 14.6929 1.7694 14.8601 1.8327C15.7231 2.15946 15.7249 2.1636 16.5376 1.8102C16.6282 1.77082 16.7087 1.66205 16.7512 1.56649C16.9138 1.20165 17.0709 0.833352 17.2065 0.457843C17.2985 0.203205 17.4649 0.0766218 17.7235 0.0747542C18.4407 0.0695756 19.158 0.066804 19.8752 0.0750398C20.1431 0.0781164 20.3269 0.229492 20.4297 0.476569C20.5753 0.826155 20.7316 1.17182 20.8618 1.52705C20.937 1.73206 21.0786 1.81487 21.2595 1.92328C21.7735 2.23131 22.2417 2.15373 22.728 1.88748C22.9024 1.79204 23.1012 1.74206 23.2781 1.65051C23.5493 1.51017 23.7595 1.58871 23.9582 1.78994C24.4252 2.26281 24.9009 2.72711 25.3636 3.20412C25.4678 3.31157 25.5331 3.4568 25.6161 3.5843ZM14.2335 14.0445C14.3131 14.0122 14.3722 13.9901 14.4297 13.9645C14.7755 13.8103 15.1137 13.6346 15.4698 13.5101C15.6273 13.455 15.8343 13.4607 15.9954 13.5123C16.3641 13.6304 16.7304 13.7703 17.0736 13.9479C17.2631 14.046 17.4468 14.2121 17.5574 14.3936C17.7691 14.7411 17.8374 15.2641 18.1316 15.4484C18.4291 15.6347 18.9287 15.4875 19.3386 15.509C19.5504 15.5201 19.6643 15.4574 19.7348 15.2513C19.8403 14.9434 19.9475 14.629 20.1105 14.3505C20.2173 14.1682 20.4024 14.0042 20.5907 13.9035C20.8942 13.7411 21.2367 13.6534 21.5486 13.5046C21.8091 13.3803 22.047 13.3789 22.3031 13.5012C22.6067 13.6461 22.9208 13.7692 23.2237 13.9156C23.3763 13.9893 23.4848 13.9924 23.6105 13.8564C23.8679 13.5777 24.153 13.3243 24.4062 13.0421C24.4688 12.9724 24.4992 12.8144 24.4655 12.7278C24.3207 12.3557 24.1304 12.0011 23.9912 11.6272C23.9388 11.4865 23.939 11.2973 23.9866 11.1539C24.1154 10.7657 24.2594 10.3785 24.4444 10.0149C24.5358 9.83547 24.707 9.6643 24.8847 9.56869C25.1692 9.41565 25.4877 9.32446 25.7948 9.2155C25.939 9.16431 26.0142 9.09424 26.0077 8.92281C25.9936 8.5436 26.0155 8.16283 25.9947 7.78424C25.9895 7.69027 25.8972 7.5603 25.8105 7.51891C25.4884 7.36506 25.1352 7.27063 24.8272 7.09504C24.6441 6.99063 24.4846 6.79688 24.3839 6.60657C24.223 6.30243 24.0913 5.97537 24.0022 5.64325C23.9438 5.42531 23.9279 5.16554 23.9898 4.95271C24.0888 4.6125 24.2622 4.29283 24.4165 3.97039C24.4847 3.82791 24.4821 3.73 24.3579 3.6145C24.0801 3.35612 23.8275 3.07006 23.5438 2.81881C23.4645 2.74858 23.2977 2.7121 23.1966 2.74323C22.8256 2.85749 22.4702 3.02259 22.0987 3.13484C21.954 3.17856 21.7696 3.17015 21.6254 3.12074C21.2284 2.98468 20.8354 2.83068 20.4571 2.64975C20.302 2.57556 20.1438 2.43728 20.0658 2.28721C19.9165 1.99993 19.8379 1.67658 19.699 1.38283C19.654 1.28759 19.5159 1.18413 19.4142 1.17731C19.0467 1.15268 18.6762 1.17688 18.3076 1.16359C18.1278 1.15712 18.0449 1.22886 17.9851 1.38951C17.8641 1.71454 17.7526 2.04863 17.5822 2.34767C17.4832 2.5214 17.2971 2.67194 17.1155 2.76618C16.8096 2.92493 16.4671 3.01209 16.1572 3.16425C15.896 3.29248 15.6624 3.29456 15.405 3.16964C15.0929 3.01823 14.7761 2.873 14.4502 2.75609C14.3521 2.72089 14.1836 2.74984 14.1047 2.81687C13.8239 3.05527 13.5757 3.33164 13.2992 3.5757C13.1484 3.70887 13.1163 3.82374 13.2083 4.00873C13.3814 4.35698 13.5425 4.71273 13.6807 5.076C13.7274 5.19891 13.7274 5.36718 13.6837 5.49188C13.5412 5.89797 13.3881 6.30302 13.1987 6.68862C13.1184 6.85198 12.9599 7.00797 12.7979 7.09347C12.4834 7.25955 12.136 7.36233 11.8141 7.51619C11.7254 7.55858 11.627 7.68604 11.6218 7.77935C11.6004 8.16845 11.6026 8.5599 11.6208 8.94934C11.6248 9.0359 11.7103 9.15735 11.7901 9.19489C12.1131 9.34678 12.4654 9.44288 12.7732 9.61845C12.9556 9.72246 13.1136 9.91613 13.2144 10.1057C13.3761 10.4099 13.4659 10.7515 13.6153 11.0633C13.7349 11.3129 13.7426 11.5406 13.6255 11.7882C13.4728 12.1115 13.3222 12.437 13.1974 12.7715C13.1641 12.8606 13.1912 13.0194 13.254 13.0892C13.5144 13.379 13.7982 13.648 14.0759 13.9221C14.1255 13.9712 14.1866 14.0086 14.2335 14.0445Z" fill="white"></path><path d="M15.3668 8.35289C15.3682 6.46235 16.9158 4.92029 18.8103 4.92188C20.6934 4.92346 22.259 6.48914 22.2531 8.36497C22.2473 10.2398 20.6674 11.8144 18.7981 11.8084C16.9168 11.8023 15.3654 10.2401 15.3668 8.35289ZM16.352 8.30738C16.3502 9.6644 17.435 10.7541 18.7932 10.7596C20.1509 10.7651 21.2532 9.67801 21.2572 8.32943C21.2613 6.95342 20.1723 5.85988 18.7995 5.86138C17.4421 5.86286 16.3538 6.95047 16.352 8.30738Z" fill="white"></path></g><defs><clipPath id="clip0_93_180"><rect width="31" height="29.8608" fill="white" transform="translate(0.5 0.0698242)"></rect></clipPath></defs></svg>