<svg xmlns="http://www.w3.org/2000/svg" width="90" height="51" viewBox="0 0 90 51" fill="none"><g clip-path="url(#clip0_8_237)"><path fill-rule="evenodd" clip-rule="evenodd" d="M33.084 7.53316H38.028L35.8832 14.4071L39.2209 14.4126L41.1266 7.53316H45.8898L43.7498 14.3262L46.5252 14.4071L45.5715 17.9835L42.874 17.905L40.6841 25.8641L36.1218 25.9122L32.8181 21.0048C30.375 25.7905 26.7384 26.2719 23.4134 26.6907C18.8699 26.5391 15.6405 25.6481 11.6582 22.7254L17.3727 20.936C19.1542 22.7899 21.8772 23.5288 23.652 23.3468C27.263 22.7522 28.9277 20.9835 29.7749 19.3395L33.084 7.53316ZM63.4284 12.6482C63.4028 10.2452 63.4539 6.67194 60.1076 5.62143C58.1265 5.26051 53.8922 6.31284 50.9762 11.9208C48.4418 17.2513 46.9774 24.8027 53.6682 26.0705C57.359 26.3096 59.9852 22.9774 61.2987 21.2464L58.1204 19.6152C57.7053 20.4302 57.1015 21.9214 54.9999 22.0565C53.2421 20.9981 53.4205 19.2507 54.6116 15.2574C55.4862 13.0943 56.7406 10.8642 58.4947 10.4863C60.3297 10.6397 60.1088 12.6402 59.9445 13.3584L63.4284 12.6482ZM23.1913 22.1892L10.946 16.1977L30.882 6.8241V10.9196L19.9989 15.8052L28.896 20.5519L23.1913 22.1892ZM54.0212 27.4235L43.6665 32.2122L34.9404 27.9353L37.661 26.6906H40.4096L43.905 28.5549L49.7869 25.7716L54.0212 27.4235ZM67.0619 10.0134L79.8044 15.4935L61.2585 24.0753L61.8428 20.0547L71.6236 15.4144L64.3169 12.4224V11.5137L67.0619 10.0134ZM34.9282 4.9221L44.9379 0.493652L55.6713 5.11138L52.4089 7.53377L45.098 4.53623L39.6665 6.97017L34.7888 4.99149L34.9282 4.9221ZM36.0408 17.905L37.9507 17.8624L37.3956 19.457L36.0408 17.905Z" fill="white"></path><path fill-rule="evenodd" clip-rule="evenodd" d="M64.8203 38.9837H68.0388L68.0382 43.0366H72.8617V38.9837H76.0795V50.3208H72.8617V45.5886H68.0382V50.3208H64.8203V38.9837Z" fill="white"></path><path fill-rule="evenodd" clip-rule="evenodd" d="M45.3439 43.8915H51.2507C51.2568 44.0754 51.2635 44.1788 51.2635 44.1965C51.2635 45.8008 51.2307 47.0035 51.1662 47.8112C51.07 49.1167 50.5162 49.9146 49.5076 50.1873C49.0706 50.3042 48.5709 50.3833 48.0092 50.4241C47.4492 50.4648 46.5923 50.4843 45.4468 50.4843C43.9867 50.4843 42.9544 50.4314 42.3507 50.3273C41.7408 50.2256 41.2654 50.0151 40.9143 49.6992C40.68 49.4831 40.4931 49.2056 40.3586 48.8696C40.2314 48.5282 40.1474 48.0814 40.0944 47.5282C40.0464 47.0126 40.0195 45.9938 40.0195 44.4716C40.0195 43.4357 40.0403 42.6578 40.0841 42.1295C40.123 41.6043 40.2027 41.1368 40.3239 40.7163C40.571 39.8429 41.0871 39.3115 41.8856 39.1229C42.753 38.9177 44.0859 38.8167 45.8874 38.8167C46.9605 38.8167 47.804 38.8514 48.4243 38.922C49.0481 38.9975 49.5545 39.1143 49.9617 39.2811C50.605 39.5507 50.9994 40.1423 51.1339 41.0419C51.2076 41.4899 51.2435 41.6091 51.2453 42.3943H48.1497C48.1467 42.0717 48.1358 42.194 48.1084 42.0808C48.0822 41.9676 48.0323 41.8733 47.9526 41.7942C47.8107 41.6566 47.5083 41.5678 47.0432 41.5349C46.6129 41.5026 46.493 41.4856 45.6653 41.4856C44.7706 41.4856 44.6409 41.5136 44.2575 41.5678C43.8777 41.6195 43.6142 41.726 43.473 41.8763C43.3342 42.0261 43.2368 42.2847 43.1887 42.6335C43.137 42.9901 43.1127 43.7522 43.1127 44.6055C43.1127 45.5623 43.137 46.261 43.1887 46.6395C43.2368 47.0199 43.3323 47.292 43.4724 47.4405C43.6142 47.5921 43.7974 47.6827 44.0226 47.7132C44.2502 47.743 44.451 47.785 45.6513 47.7905C46.8284 47.7996 47.0366 47.7637 47.2873 47.7479C47.5386 47.7272 47.7438 47.6767 47.8923 47.5921C48.0171 47.5245 48.1084 47.4332 48.1595 47.2719C48.2106 47.1076 48.2361 46.6036 48.2361 46.2768C48.2361 46.2257 48.2362 46.1216 48.2331 45.964H45.3439L45.3439 43.8915Z" fill="white"></path><path fill-rule="evenodd" clip-rule="evenodd" d="M27.0737 38.9832H32.2338L35.3743 47.0629H35.5265V38.9832H38.8789V50.3203H33.7572L30.5959 42.2358H30.4018L30.4194 50.3197H27.0737V38.9832Z" fill="white"></path><path fill-rule="evenodd" clip-rule="evenodd" d="M0.75 38.9828H3.96849V43.0357H8.7889V38.9828H12.0116V50.3199H8.7889V45.5877H3.96786V50.3199H0.75V38.9828Z" fill="white"></path><path fill-rule="evenodd" clip-rule="evenodd" d="M13.1523 50.3199H16.6246L19.3306 42.1252H19.7713L21.5041 47.8129L18.9904 47.8184L19.9618 50.3424L25.9307 50.343L22.078 38.9797H16.991L13.1523 50.3199Z" fill="white"></path><path fill-rule="evenodd" clip-rule="evenodd" d="M77.2273 50.3207H80.6929L83.3953 42.126H83.8474L85.5814 47.8138L83.0654 47.8192L84.0404 50.3433L90.0007 50.3439L86.1445 38.9806H81.0629L77.2273 50.3207Z" fill="white"></path><path fill-rule="evenodd" clip-rule="evenodd" d="M60.4355 46.4462H63.6522C63.6686 46.9976 63.6771 47.3543 63.6771 47.5211C63.6771 48.3939 63.5736 48.5734 63.3721 49.0658C63.1507 49.6172 62.7124 49.994 62.0606 50.1942C61.4123 50.3987 60.2888 50.4936 58.6912 50.4936C57.0174 50.4936 55.8226 50.4492 55.1044 50.3713C54.3972 50.2861 53.8585 50.1279 53.497 49.8868C53.1757 49.6708 52.9292 49.3841 52.7764 49.0183C52.6181 48.6483 52.5116 48.1516 52.4648 47.5113C52.4227 46.9976 52.4045 46.0676 52.4045 44.7225C52.4045 43.4091 52.4227 42.4615 52.4648 41.8808C52.5055 41.2996 52.5792 40.8486 52.6936 40.5284C52.9291 39.8102 53.4331 39.3397 54.1811 39.1267C54.9303 38.9149 56.4416 38.8066 58.7143 38.8066C59.8543 38.8072 60.6765 38.8425 61.1902 38.907C61.7088 38.9752 62.122 39.0993 62.4245 39.2813C62.8281 39.5248 63.1099 39.8851 63.2718 40.3677C63.4361 40.8443 63.5182 41.0421 63.5182 41.9788C63.5182 42.0263 63.5164 42.2174 63.5146 42.5412H60.2955C60.2839 42.1663 60.2645 42.2527 60.2401 42.1237C60.2176 41.9965 60.1671 41.8918 60.0977 41.809C59.9954 41.6915 59.7313 41.6094 59.312 41.5527C58.8981 41.5028 58.7922 41.4718 57.9468 41.4718C57.1038 41.4718 57.0527 41.498 56.7295 41.5461C56.4088 41.5972 56.1787 41.6885 56.0466 41.8254C55.8835 41.9922 55.7733 42.2703 55.7113 42.6629C55.6541 43.0573 55.6188 43.8479 55.6188 44.7091C55.6188 45.5625 55.6498 46.3318 55.7058 46.6854C55.7563 47.0354 55.8701 47.288 56.0284 47.4407C56.1787 47.5923 56.4185 47.6945 56.7478 47.7463C57.0771 47.7931 57.1343 47.8187 57.9632 47.8187C58.9918 47.8187 59.1525 47.7998 59.4933 47.7566C59.8311 47.7104 60.0673 47.6081 60.1859 47.462C60.343 47.2667 60.4264 47.1577 60.4355 46.4462Z" fill="white"></path></g><defs><clipPath id="clip0_8_237"><rect width="89.2507" height="50" fill="white" transform="translate(0.75 0.493652)"></rect></clipPath></defs></svg>