<svg xmlns="http://www.w3.org/2000/svg" width="171" height="51" viewBox="0 0 171 51" fill="none"><g clip-path="url(#clip0_7_197)"><path d="M2.56869 28.8174C0.313387 26.5541 0.371092 22.8262 2.69753 20.4902L21.3221 1.79097C23.6486 -0.544525 27.3627 -0.603577 29.618 1.65927C31.8733 3.9223 31.8153 7.65034 29.4888 9.98617L10.8646 28.6854C8.53812 31.0212 4.82367 31.0805 2.56869 28.8174Z" fill="white"></path><path d="M2.40429 47.9702C0.148982 45.7072 0.207016 41.979 2.53345 39.6433L21.1577 20.9441C23.4842 18.6082 27.1983 18.5492 29.4536 20.8124C31.7089 23.0754 31.6512 26.8034 29.3247 29.1393L10.7001 47.8383C8.37371 50.1742 4.65959 50.2334 2.40429 47.9702Z" fill="white"></path><path d="M21.0027 48.3533C18.7474 46.0902 18.8051 42.3624 21.1319 40.0264L39.7562 21.3275C42.0826 18.9915 45.7967 18.9326 48.052 21.1954C50.3073 23.4585 50.2496 27.1865 47.9232 29.5223L29.2986 48.2216C26.9721 50.5574 23.258 50.6165 21.0027 48.3533Z" fill="white"></path><path fill-rule="evenodd" clip-rule="evenodd" d="M76.8419 24.0625H73.2533C72.995 22.5476 72.0911 21.7817 70.542 21.7644C69.7636 21.7817 69.1456 22.0113 68.688 22.453C68.23 22.8946 67.9026 23.4455 67.7056 24.1053C67.5087 24.765 67.4131 25.4307 67.4178 26.1019C67.4131 26.7555 67.506 27.4025 67.6969 28.042C67.8881 28.6825 68.2069 29.2161 68.6531 29.6439C69.1 30.0718 69.7036 30.2939 70.4649 30.3105C71.3174 30.2991 71.9874 30.0505 72.4753 29.5649C72.9634 29.0792 73.2654 28.424 73.3821 27.5993H76.9198C76.6678 29.3748 75.9773 30.7294 74.8473 31.6627C73.7177 32.5961 72.2656 33.0659 70.4904 33.0728C69.1393 33.0628 67.9603 32.7675 66.9531 32.1886C65.9462 31.609 65.1628 30.8073 64.6035 29.7833C64.0438 28.7595 63.76 27.5753 63.7513 26.2311C63.7553 24.8333 64.023 23.5928 64.5545 22.5096C65.0866 21.426 65.859 20.5738 66.8729 19.9526C67.8864 19.3309 69.1181 19.0142 70.5679 19.002C71.6328 19.0011 72.6245 19.1865 73.5428 19.5567C74.4611 19.927 75.2177 20.4869 75.8122 21.2358C76.4068 21.9847 76.75 22.9269 76.8419 24.0625Z" fill="white"></path><path fill-rule="evenodd" clip-rule="evenodd" d="M82.9835 14.2778V17.2989H79.317V14.2778H82.9835ZM79.317 32.7124V19.3642H82.9835V32.7124H79.317Z" fill="white"></path><path fill-rule="evenodd" clip-rule="evenodd" d="M85.7149 32.6865V19.3383H89.1743V21.1459H89.226C89.7058 20.4568 90.2889 19.9243 90.9757 19.5482C91.6618 19.1719 92.4385 18.9819 93.3058 18.9772C94.157 18.9698 94.9263 19.1394 95.6131 19.4868C96.3003 19.8342 96.8307 20.4042 97.2045 21.1976C97.595 20.5965 98.1308 20.0811 98.8119 19.6515C99.4927 19.2216 100.3 18.9969 101.233 18.9772C102.678 18.9599 103.847 19.3232 104.737 20.0681C105.628 20.8122 106.086 22.0409 106.112 23.7533V32.6865H102.446V25.1215C102.457 24.5208 102.418 23.9756 102.328 23.4866C102.239 22.9974 102.033 22.6074 101.712 22.3163C101.39 22.0253 100.886 21.8758 100.2 21.8688C99.5192 21.8793 99.0011 22.0473 98.6458 22.3727C98.2902 22.698 98.0496 23.1164 97.9235 23.6282C97.7977 24.14 97.7386 24.6807 97.7467 25.2507V32.6865H94.0802V25.1991C94.096 24.6705 94.0762 24.1534 94.0211 23.6475C93.9661 23.1415 93.7816 22.7216 93.4682 22.388C93.1549 22.0543 92.619 21.881 91.8598 21.8688C91.6018 21.8584 91.2804 21.9305 90.8955 22.0857C90.5117 22.2405 90.1671 22.5408 89.8632 22.9855C89.5588 23.4302 89.3981 24.0823 89.3813 24.9411V32.6865L85.7149 32.6865Z" fill="white"></path><path fill-rule="evenodd" clip-rule="evenodd" d="M111.264 24.6051H117.229C117.072 23.6738 116.766 22.968 116.312 22.4881C115.858 22.0084 115.191 21.7674 114.311 21.7652C113.543 21.7811 112.939 21.9499 112.5 22.272C112.061 22.5937 111.748 22.973 111.561 23.41C111.374 23.8464 111.275 24.2448 111.264 24.6051ZM120.895 26.9287H111.264C111.389 29.2181 112.482 30.3458 114.544 30.311C115.293 30.2904 115.93 30.1057 116.454 29.7559C116.978 29.4065 117.305 29.015 117.436 28.581H120.663C120.139 30.1463 119.347 31.2887 118.284 32.0084C117.222 32.7282 115.932 33.0832 114.414 33.0738C112.289 33.0391 110.627 32.3853 109.428 31.1114C108.229 29.8378 107.619 28.1508 107.598 26.0512C107.607 24.7043 107.896 23.5022 108.465 22.4453C109.033 21.3878 109.826 20.553 110.846 19.941C111.864 19.3284 113.054 19.0154 114.414 19.0024C115.93 19.0244 117.182 19.4054 118.172 20.1454C119.161 20.8852 119.884 21.8533 120.339 23.0497C120.795 24.2455 120.981 25.5386 120.895 26.9287Z" fill="white"></path><path fill-rule="evenodd" clip-rule="evenodd" d="M123.034 32.7121V19.364H126.52V21.8425H126.572C126.932 20.9898 127.503 20.3067 128.286 19.7931C129.068 19.2797 129.917 19.0162 130.832 19.0024C131.112 19.0068 131.378 19.0501 131.632 19.1316V22.5397C131.458 22.5003 131.252 22.4691 131.013 22.4461C130.774 22.4233 130.542 22.4112 130.316 22.4106C128.99 22.4424 128.052 22.8628 127.501 23.6722C126.95 24.4818 126.684 25.4902 126.701 26.6965V32.7121L123.034 32.7121Z" fill="white"></path><path fill-rule="evenodd" clip-rule="evenodd" d="M139.007 15.3623V19.364H141.693V21.8169H139.007V28.4261C138.994 29.0331 139.098 29.4461 139.317 29.6657C139.536 29.8853 139.95 29.9883 140.557 29.9752C140.935 29.9796 141.314 29.9453 141.693 29.8722V32.7381C141.378 32.7885 141.033 32.8227 140.66 32.8413C140.287 32.8596 139.916 32.8681 139.549 32.8671C138.79 32.8772 138.094 32.7995 137.46 32.6346C136.826 32.4697 136.317 32.1572 135.933 31.6965C135.548 31.2364 135.351 30.5679 135.341 29.6913V21.8169H133.12V19.364H135.341V15.3623H139.007Z" fill="white"></path><path fill-rule="evenodd" clip-rule="evenodd" d="M146.483 24.6051H152.447C152.29 23.6738 151.985 22.968 151.531 22.4881C151.077 22.0084 150.41 21.7674 149.53 21.7652C148.762 21.7811 148.158 21.9499 147.719 22.272C147.279 22.5937 146.966 22.973 146.779 23.41C146.592 23.8464 146.494 24.2448 146.483 24.6051ZM156.114 26.9287H146.483C146.608 29.2181 147.701 30.3458 149.762 30.311C150.512 30.2904 151.149 30.1057 151.672 29.7559C152.197 29.4065 152.524 29.015 152.654 28.581H155.881C155.358 30.1463 154.565 31.2887 153.503 32.0084C152.44 32.7282 151.151 33.0832 149.633 33.0738C147.508 33.0391 145.846 32.3853 144.647 31.1114C143.447 29.8378 142.838 28.1508 142.817 26.0512C142.826 24.7043 143.115 23.5022 143.683 22.4453C144.252 21.3878 145.045 20.553 146.064 19.941C147.083 19.3284 148.273 19.0154 149.633 19.0024C151.148 19.0244 152.401 19.4054 153.39 20.1454C154.38 20.8852 155.102 21.8533 155.558 23.0497C156.014 24.2455 156.199 25.5386 156.114 26.9287Z" fill="white"></path><path fill-rule="evenodd" clip-rule="evenodd" d="M156.885 32.7124L161.687 25.6898L157.298 19.3643H161.48L163.83 22.8497L166.154 19.3643H170.208L165.818 25.6125L170.75 32.7124H166.567L163.778 28.5041L160.99 32.7124H156.885Z" fill="white"></path></g><defs><clipPath id="clip0_7_197"><rect width="170" height="50.0127" fill="white" transform="translate(0.75)"></rect></clipPath></defs></svg>