<svg xmlns="http://www.w3.org/2000/svg" width="90" height="50" viewBox="0 0 90 50" fill="none"><g clip-path="url(#clip0_8_205)"><path fill-rule="evenodd" clip-rule="evenodd" d="M33.084 7.0395H38.028L35.8832 13.9135L39.2209 13.9189L41.1266 7.0395H45.8898L43.7498 13.8325L46.5252 13.9135L45.5715 17.4898L42.874 17.4113L40.6841 25.3705L36.1218 25.4186L32.8181 20.5111C30.375 25.2968 26.7384 25.7783 23.4134 26.197C18.8699 26.0455 15.6405 25.1544 11.6582 22.2317L17.3727 20.4423C19.1542 22.2962 21.8772 23.0351 23.652 22.8532C27.263 22.2585 28.9277 20.4898 29.7749 18.8459L33.084 7.0395ZM63.4284 12.1545C63.4028 9.7516 63.4539 6.17829 60.1076 5.12778C58.1265 4.76686 53.8922 5.81918 50.9762 11.4272C48.4418 16.7576 46.9774 24.309 53.6682 25.5768C57.359 25.816 59.9852 22.4837 61.2987 20.7527L58.1204 19.1216C57.7053 19.9366 57.1015 21.4277 54.9999 21.5628C53.2421 20.5044 53.4205 18.757 54.6116 14.7637C55.4862 12.6006 56.7406 10.3706 58.4947 9.99262C60.3297 10.146 60.1088 12.1466 59.9445 12.8648L63.4284 12.1545ZM23.1913 21.6955L10.946 15.7041L30.882 6.33045V10.426L19.9989 15.3115L28.896 20.0583L23.1913 21.6955ZM54.0212 26.9298L43.6665 31.7186L34.9404 27.4417L37.661 26.197H40.4096L43.905 28.0613L49.7869 25.278L54.0212 26.9298ZM67.0619 9.51971L79.8044 14.9999L61.2585 23.5817L61.8428 19.561L71.6236 14.9208L64.3169 11.9287V11.02L67.0619 9.51971ZM34.9282 4.42845L44.9379 0L55.6713 4.61773L52.4089 7.04012L45.098 4.04258L39.6665 6.47651L34.7888 4.49784L34.9282 4.42845ZM36.0408 17.4113L37.9507 17.3687L37.3956 18.9633L36.0408 17.4113Z" fill="white"></path><path fill-rule="evenodd" clip-rule="evenodd" d="M64.8203 38.4902H68.0388L68.0382 42.5432H72.8617V38.4902H76.0795V49.8273H72.8617V45.0952H68.0382V49.8273H64.8203V38.4902Z" fill="white"></path><path fill-rule="evenodd" clip-rule="evenodd" d="M45.344 43.3981H51.2509C51.257 43.5819 51.2636 43.6854 51.2636 43.703C51.2636 45.3074 51.2308 46.51 51.1663 47.3177C51.0701 48.6232 50.5163 49.4212 49.5077 49.6938C49.0708 49.8107 48.5711 49.8898 48.0093 49.9306C47.4493 49.9714 46.5924 49.9908 45.4469 49.9908C43.9868 49.9908 42.9545 49.9379 42.3508 49.8338C41.7409 49.7322 41.2655 49.5216 40.9144 49.2057C40.6801 48.9896 40.4932 48.7121 40.3587 48.3761C40.2315 48.0347 40.1475 47.5879 40.0945 47.0347C40.0465 46.5192 40.0197 45.5003 40.0197 43.9781C40.0197 42.9422 40.0404 42.1644 40.0842 41.6361C40.1231 41.1108 40.2029 40.6434 40.324 40.2228C40.5711 39.3494 41.0872 38.8181 41.8858 38.6294C42.7531 38.4243 44.086 38.3232 45.8875 38.3232C46.9606 38.3232 47.8042 38.3579 48.4244 38.4285C49.0483 38.504 49.5546 38.6209 49.9618 38.7876C50.6051 39.0573 50.9995 39.6489 51.134 40.5484C51.2077 40.9964 51.2436 41.1157 51.2454 41.9008H48.1499C48.1468 41.5782 48.1359 41.7006 48.1085 41.5874C48.0823 41.4742 48.0324 41.3798 47.9527 41.3007C47.8109 41.1632 47.5084 41.0743 47.0434 41.0414C46.613 41.0092 46.4931 40.9921 45.6654 40.9921C44.7707 40.9921 44.6411 41.0201 44.2576 41.0743C43.8778 41.126 43.6143 41.2325 43.4731 41.3829C43.3343 41.5326 43.2369 41.7913 43.1889 42.14C43.1371 42.4967 43.1128 43.2587 43.1128 44.112C43.1128 45.0688 43.1371 45.7675 43.1889 46.1461C43.2369 46.5265 43.3325 46.7985 43.4725 46.947C43.6143 47.0986 43.7975 47.1893 44.0227 47.2197C44.2503 47.2495 44.4512 47.2915 45.6514 47.297C46.8285 47.3061 47.0367 47.2702 47.2874 47.2544C47.5388 47.2337 47.7439 47.1832 47.8924 47.0986C48.0172 47.031 48.1085 46.9397 48.1596 46.7784C48.2107 46.6141 48.2363 46.1102 48.2363 45.7833C48.2363 45.7322 48.2363 45.6281 48.2332 45.4705H45.3441L45.344 43.3981Z" fill="white"></path><path fill-rule="evenodd" clip-rule="evenodd" d="M27.0737 38.4897H32.2338L35.3743 46.5694H35.5265V38.4897H38.8789V49.8269H33.7572L30.5959 41.7423H30.4018L30.4194 49.8262H27.0737V38.4897Z" fill="white"></path><path fill-rule="evenodd" clip-rule="evenodd" d="M0.75 38.4893H3.96849V42.5422H8.7889V38.4893H12.0116V49.8264H8.7889V45.0942H3.96786V49.8264H0.75V38.4893Z" fill="white"></path><path fill-rule="evenodd" clip-rule="evenodd" d="M13.1523 49.826H16.6246L19.3306 41.6313H19.7713L21.5041 47.319L18.9904 47.3245L19.9618 49.8485L25.9307 49.8491L22.078 38.4858H16.991L13.1523 49.826Z" fill="white"></path><path fill-rule="evenodd" clip-rule="evenodd" d="M77.2273 49.827H80.6929L83.3953 41.6323H83.8474L85.5814 47.32L83.0654 47.3255L84.0404 49.8495L90.0007 49.8501L86.1445 38.4868H81.0629L77.2273 49.827Z" fill="white"></path><path fill-rule="evenodd" clip-rule="evenodd" d="M60.4355 45.9526H63.6522C63.6686 46.504 63.6771 46.8607 63.6771 47.0275C63.6771 47.9003 63.5736 48.0798 63.3721 48.5722C63.1507 49.1236 62.7124 49.5004 62.0606 49.7006C61.4123 49.9051 60.2888 50.0001 58.6912 50.0001C57.0174 50.0001 55.8226 49.9556 55.1044 49.8777C54.3972 49.7925 53.8585 49.6343 53.497 49.3932C53.1757 49.1772 52.9292 48.8905 52.7764 48.5247C52.6181 48.1547 52.5116 47.658 52.4648 47.0177C52.4227 46.504 52.4045 45.574 52.4045 44.229C52.4045 42.9155 52.4227 41.9679 52.4648 41.3872C52.5055 40.806 52.5792 40.355 52.6936 40.0348C52.9291 39.3166 53.4331 38.8462 54.1811 38.6331C54.9303 38.4213 56.4416 38.313 58.7143 38.313C59.8543 38.3136 60.6765 38.3489 61.1902 38.4134C61.7088 38.4816 62.122 38.6057 62.4245 38.7877C62.8281 39.0312 63.1099 39.3915 63.2718 39.8741C63.4361 40.3507 63.5182 40.5485 63.5182 41.4852C63.5182 41.5327 63.5164 41.7238 63.5146 42.0476H60.2955C60.2839 41.6727 60.2645 41.7591 60.2401 41.6301C60.2176 41.5029 60.1671 41.3982 60.0977 41.3154C59.9954 41.1979 59.7313 41.1158 59.312 41.0592C58.8981 41.0092 58.7922 40.9782 57.9468 40.9782C57.1038 40.9782 57.0527 41.0044 56.7295 41.0525C56.4088 41.1036 56.1787 41.1949 56.0466 41.3318C55.8835 41.4986 55.7733 41.7767 55.7113 42.1693C55.6541 42.5637 55.6188 43.3543 55.6188 44.2156C55.6188 45.0689 55.6498 45.8382 55.7058 46.1918C55.7563 46.5418 55.8701 46.7944 56.0284 46.9471C56.1787 47.0987 56.4185 47.2009 56.7478 47.2527C57.0771 47.2995 57.1343 47.3251 57.9632 47.3251C58.9918 47.3251 59.1525 47.3062 59.4933 47.263C59.8311 47.2168 60.0673 47.1145 60.1859 46.9684C60.343 46.7731 60.4264 46.6641 60.4355 45.9526Z" fill="white"></path></g><defs><clipPath id="clip0_8_205"><rect width="89.2507" height="50" fill="white" transform="translate(0.75)"></rect></clipPath></defs></svg>