<svg xmlns="http://www.w3.org/2000/svg" width="170" height="51" viewBox="0 0 170 51" fill="none"><g clip-path="url(#clip0_7_356)"><path d="M1.81863 29.3111C-0.436674 27.0478 -0.378969 23.3199 1.94747 20.9839L20.5721 2.28464C22.8985 -0.0508538 26.6126 -0.109906 28.8679 2.15294C31.1232 4.41597 31.0652 8.14401 28.7388 10.4798L10.1145 29.1791C7.78806 31.5149 4.07361 31.5741 1.81863 29.3111Z" fill="white"></path><path d="M1.65429 48.4636C-0.601018 46.2006 -0.542984 42.4724 1.78345 40.1367L20.4077 21.4375C22.7342 19.1017 26.4483 19.0426 28.7036 21.3058C30.9589 23.5688 30.9012 27.2969 28.5747 29.6327L9.95015 48.3318C7.62371 50.6676 3.90959 50.7268 1.65429 48.4636Z" fill="white"></path><path d="M20.2527 48.8468C17.9974 46.5838 18.0551 42.8559 20.3818 40.5199L39.0061 21.821C41.3325 19.485 45.0467 19.4261 47.302 21.689C49.5573 23.952 49.4996 27.68 47.1731 30.0159L28.5485 48.7151C26.2221 51.0509 22.508 51.11 20.2527 48.8468Z" fill="white"></path><path fill-rule="evenodd" clip-rule="evenodd" d="M76.0919 24.5559H72.5033C72.2449 23.0411 71.341 22.2751 69.792 22.2578C69.0136 22.2751 68.3956 22.5048 67.938 22.9465C67.48 23.388 67.1525 23.9389 66.9556 24.5987C66.7586 25.2585 66.663 25.9241 66.6677 26.5953C66.663 27.2489 66.756 27.8959 66.9468 28.5354C67.1381 29.1759 67.4568 29.7095 67.9031 30.1373C68.35 30.5653 68.9535 30.7874 69.7148 30.804C70.5674 30.7926 71.2374 30.5439 71.7252 30.0583C72.2134 29.5727 72.5153 28.9174 72.6321 28.0927H76.1697C75.9178 29.8682 75.2273 31.2229 74.0973 32.1561C72.9676 33.0895 71.5155 33.5594 69.7403 33.5662C68.3892 33.5562 67.2102 33.2609 66.203 32.682C65.1961 32.1024 64.4127 31.3007 63.8534 30.2767C63.2938 29.2529 63.0099 28.0687 63.0012 26.7245C63.0052 25.3268 63.273 24.0862 63.8044 23.003C64.3366 21.9195 65.1089 21.0673 66.1228 20.4461C67.1364 19.8244 68.3681 19.5076 69.8178 19.4954C70.8827 19.4945 71.8745 19.6799 72.7928 20.0502C73.7111 20.4204 74.4677 20.9804 75.0622 21.7292C75.6567 22.4781 76 23.4204 76.0919 24.5559Z" fill="white"></path><path fill-rule="evenodd" clip-rule="evenodd" d="M82.2335 14.7714V17.7925H78.567V14.7714H82.2335ZM78.567 33.2059V19.8577H82.2335V33.2059H78.567Z" fill="white"></path><path fill-rule="evenodd" clip-rule="evenodd" d="M84.9648 33.1801V19.8319H88.4243V21.6395H88.476C88.9558 20.9504 89.5389 20.4179 90.2257 20.0418C90.9118 19.6655 91.6885 19.4754 92.5558 19.4707C93.407 19.4634 94.1763 19.6329 94.8631 19.9804C95.5502 20.3278 96.0807 20.8978 96.4545 21.6911C96.845 21.0901 97.3808 20.5747 98.0619 20.1451C98.7426 19.7151 99.5495 19.4905 100.483 19.4707C101.928 19.4535 103.097 19.8168 103.987 20.5616C104.878 21.3058 105.336 22.5345 105.362 24.2469V33.1801H101.696V25.6151C101.707 25.0144 101.668 24.4692 101.578 23.9802C101.489 23.491 101.283 23.101 100.962 22.8099C100.64 22.5189 100.136 22.3694 99.4496 22.3623C98.7691 22.3729 98.2511 22.5408 97.8958 22.8663C97.5401 23.1916 97.2996 23.6099 97.1734 24.1218C97.0476 24.6336 96.9886 25.1743 96.9966 25.7443V33.1801H93.3302V25.6926C93.3459 25.164 93.3261 24.647 93.2711 24.1411C93.2161 23.6351 93.0316 23.2152 92.7182 22.8816C92.4048 22.5479 91.869 22.3746 91.1098 22.3623C90.8517 22.3519 90.5303 22.4241 90.1455 22.5793C89.7617 22.7341 89.4171 23.0344 89.1131 23.4791C88.8088 23.9238 88.6481 24.5759 88.6313 25.4346V33.1801L84.9648 33.1801Z" fill="white"></path><path fill-rule="evenodd" clip-rule="evenodd" d="M110.514 25.0989H116.478C116.322 24.1676 116.016 23.4618 115.562 22.9818C115.108 22.5022 114.441 22.2612 113.561 22.259C112.793 22.2749 112.189 22.4437 111.75 22.7658C111.311 23.0875 110.998 23.4668 110.811 23.9038C110.624 24.3401 110.525 24.7386 110.514 25.0989ZM120.145 27.4225H110.514C110.639 29.7119 111.732 30.8395 113.794 30.8048C114.543 30.7842 115.18 30.5995 115.704 30.2497C116.228 29.9003 116.555 29.5087 116.685 29.0747H119.913C119.389 30.6401 118.597 31.7825 117.534 32.5022C116.472 33.222 115.182 33.577 113.664 33.5676C111.539 33.5329 109.877 32.8791 108.678 31.6052C107.479 30.3316 106.869 28.6446 106.848 26.545C106.857 25.1981 107.146 23.9959 107.715 22.9391C108.283 21.8815 109.076 21.0468 110.096 20.4348C111.114 19.8222 112.304 19.5091 113.664 19.4962C115.18 19.5182 116.432 19.8992 117.422 20.6391C118.411 21.379 119.134 22.3471 119.589 23.5435C120.045 24.7393 120.23 26.0323 120.145 27.4225Z" fill="white"></path><path fill-rule="evenodd" clip-rule="evenodd" d="M122.284 33.2059V19.8577H125.77V22.3363H125.822C126.182 21.4836 126.753 20.8005 127.536 20.2869C128.318 19.7735 129.167 19.51 130.082 19.4962C130.362 19.5006 130.628 19.5439 130.882 19.6254V23.0335C130.708 22.9941 130.502 22.9629 130.263 22.9399C130.024 22.9171 129.792 22.905 129.566 22.9043C128.24 22.9362 127.302 23.3566 126.751 24.166C126.2 24.9756 125.934 25.984 125.951 27.1903V33.2059L122.284 33.2059Z" fill="white"></path><path fill-rule="evenodd" clip-rule="evenodd" d="M138.257 15.8561V19.8577H140.943V22.3107H138.257V28.9199C138.244 29.5269 138.348 29.9399 138.567 30.1595C138.786 30.3791 139.2 30.4821 139.807 30.469C140.185 30.4733 140.564 30.4391 140.943 30.366V33.2319C140.628 33.2823 140.283 33.3165 139.91 33.3351C139.537 33.3534 139.166 33.3619 138.799 33.3609C138.04 33.371 137.344 33.2933 136.71 33.1284C136.076 32.9635 135.567 32.651 135.183 32.1903C134.798 31.7302 134.601 31.0617 134.591 30.1851V22.3107H132.37V19.8577H134.591V15.8561H138.257Z" fill="white"></path><path fill-rule="evenodd" clip-rule="evenodd" d="M145.733 25.0989H151.697C151.54 24.1676 151.235 23.4618 150.781 22.9818C150.327 22.5022 149.66 22.2612 148.78 22.259C148.012 22.2749 147.408 22.4437 146.969 22.7658C146.529 23.0875 146.216 23.4668 146.029 23.9038C145.842 24.3401 145.744 24.7386 145.733 25.0989ZM155.364 27.4225H145.733C145.858 29.7119 146.951 30.8395 149.012 30.8048C149.762 30.7842 150.399 30.5995 150.922 30.2497C151.447 29.9003 151.774 29.5087 151.904 29.0747H155.131C154.608 30.6401 153.815 31.7825 152.753 32.5022C151.69 33.222 150.401 33.577 148.883 33.5676C146.758 33.5329 145.096 32.8791 143.897 31.6052C142.697 30.3316 142.088 28.6446 142.067 26.545C142.076 25.1981 142.365 23.9959 142.933 22.9391C143.502 21.8815 144.295 21.0468 145.314 20.4348C146.333 19.8222 147.523 19.5091 148.883 19.4962C150.398 19.5182 151.651 19.8992 152.64 20.6391C153.63 21.379 154.352 22.3471 154.808 23.5435C155.264 24.7393 155.449 26.0323 155.364 27.4225Z" fill="white"></path><path fill-rule="evenodd" clip-rule="evenodd" d="M156.135 33.2059L160.937 26.1833L156.548 19.8577H160.73L163.08 23.3432L165.404 19.8577H169.458L165.068 26.106L170 33.2059H165.817L163.028 28.9976L160.24 33.2059H156.135Z" fill="white"></path></g><defs><clipPath id="clip0_7_356"><rect width="170" height="50.0127" fill="white" transform="translate(0 0.493668)"></rect></clipPath></defs></svg>