<svg xmlns="http://www.w3.org/2000/svg" width="79" height="80" viewBox="0 0 79 80" fill="none"><path d="M2.90917 46.0963C-0.698404 42.4758 -0.606099 36.5127 3.11526 32.7761L32.9071 2.86483C36.6284 -0.871021 42.5695 -0.96548 46.1771 2.65417C49.7846 6.2741 49.6918 12.2375 45.9705 15.9738L16.1792 45.8851C12.4578 49.6215 6.51622 49.7162 2.90917 46.0963Z" fill="white"></path><path d="M2.64619 76.7324C-0.961386 73.1125 -0.868554 67.1488 2.8528 63.4127L32.6441 33.5015C36.3654 29.7651 42.3065 29.6706 45.9141 33.2908C49.5217 36.9107 49.4294 42.8741 45.708 46.6105L15.9162 76.5215C12.1949 80.2579 6.25377 80.3526 2.64619 76.7324Z" fill="white"></path><path d="M32.3962 77.3453C28.7886 73.7254 28.8809 67.7623 32.6028 64.0256L62.3941 34.1149C66.1154 30.3783 72.0565 30.2841 75.6641 33.9037C79.2717 37.5237 79.1794 43.487 75.458 47.2234L45.6662 77.1347C41.9449 80.871 36.0038 80.9655 32.3962 77.3453Z" fill="white"></path></svg>