<svg xmlns="http://www.w3.org/2000/svg" width="32" height="33" viewBox="0 0 32 33" fill="none"><path d="M16 19.2936C14.5 19.2936 13.2 18.0936 13.2 16.4936C13.2 14.9936 14.4 13.6936 16 13.6936C17.5 13.6936 18.8 14.8936 18.8 16.4936C18.8 17.9936 17.5 19.2936 16 19.2936Z" fill="white"></path><path fill-rule="evenodd" clip-rule="evenodd" d="M19.4 9.69365H12.6C11.8 9.79365 11.4 9.89365 11.1 9.99365C10.7 10.0936 10.4 10.2936 10.1 10.5936C9.86261 10.831 9.75045 11.0684 9.61489 11.3554C9.57916 11.431 9.5417 11.5102 9.5 11.5936C9.48453 11.6401 9.46667 11.6889 9.44752 11.7412C9.34291 12.027 9.2 12.4174 9.2 13.0936V19.8937C9.3 20.6936 9.4 21.0936 9.5 21.3937C9.6 21.7936 9.8 22.0936 10.1 22.3937C10.3374 22.631 10.5748 22.7432 10.8617 22.8788C10.9374 22.9145 11.0165 22.9519 11.1 22.9936C11.1464 23.0091 11.1952 23.027 11.2475 23.0461C11.5333 23.1507 11.9238 23.2936 12.6 23.2936H19.4C20.2 23.1936 20.6 23.0936 20.9 22.9936C21.3 22.8937 21.6 22.6936 21.9 22.3937C22.1374 22.1563 22.2495 21.9189 22.3851 21.6319C22.4209 21.5563 22.4583 21.4771 22.5 21.3937C22.5155 21.3472 22.5333 21.2984 22.5525 21.2461C22.6571 20.9603 22.8 20.5699 22.8 19.8937V13.0936C22.7 12.2936 22.6 11.8937 22.5 11.5936C22.4 11.1937 22.2 10.8937 21.9 10.5936C21.6626 10.3563 21.4252 10.2441 21.1383 10.1085C21.0627 10.0728 20.9833 10.0353 20.9 9.99365C20.8536 9.97818 20.8048 9.96032 20.7525 9.94117C20.4667 9.83656 20.0762 9.69365 19.4 9.69365ZM16 12.1936C13.6 12.1936 11.7 14.0936 11.7 16.4936C11.7 18.8937 13.6 20.7936 16 20.7936C18.4 20.7936 20.3 18.8937 20.3 16.4936C20.3 14.0936 18.4 12.1936 16 12.1936ZM21.4 12.0936C21.4 12.6459 20.9523 13.0936 20.4 13.0936C19.8477 13.0936 19.4 12.6459 19.4 12.0936C19.4 11.5414 19.8477 11.0936 20.4 11.0936C20.9523 11.0936 21.4 11.5414 21.4 12.0936Z" fill="white"></path><path fill-rule="evenodd" clip-rule="evenodd" d="M0 16.4937C0 7.6571 7.16344 0.493652 16 0.493652C24.8366 0.493652 32 7.6571 32 16.4937C32 25.3302 24.8366 32.4937 16 32.4937C7.16344 32.4937 0 25.3302 0 16.4937ZM12.6 8.19365H19.4C20.3 8.29365 20.9 8.39365 21.4 8.59365C22 8.89365 22.4 9.09365 22.9 9.59365C23.4 10.0936 23.7 10.5936 23.9 11.0936C24.1 11.5936 24.3 12.1937 24.3 13.0936V19.8937C24.2 20.7936 24.1 21.3937 23.9 21.8937C23.6 22.4936 23.4 22.8937 22.9 23.3937C22.4 23.8937 21.9 24.1936 21.4 24.3937C20.9 24.5937 20.3 24.7936 19.4 24.7936H12.6C11.7 24.6936 11.1 24.5937 10.6 24.3937C10 24.0937 9.6 23.8937 9.1 23.3937C8.6 22.8937 8.3 22.3937 8.1 21.8937C7.9 21.3937 7.7 20.7936 7.7 19.8937V13.0936C7.8 12.1937 7.9 11.5936 8.1 11.0936C8.4 10.4936 8.6 10.0936 9.1 9.59365C9.6 9.09365 10.1 8.79365 10.6 8.59365C11.1 8.39365 11.7 8.19365 12.6 8.19365Z" fill="white"></path></svg>