<svg xmlns="http://www.w3.org/2000/svg" width="162" height="20" viewBox="0 0 162 20" fill="none"><path fill-rule="evenodd" clip-rule="evenodd" d="M115.809 0.303337H121.626L121.625 7.23907H130.344V0.303337H136.16V19.7044H130.344V11.6063H121.625V19.7044H115.809V0.303337Z" fill="white"></path><path fill-rule="evenodd" clip-rule="evenodd" d="M80.6049 8.70205H91.2816C91.2926 9.0166 91.3047 9.19367 91.3047 9.22387C91.3047 11.9694 91.2453 14.0275 91.1288 15.4097C90.9549 17.6438 89.9538 19.0093 88.1308 19.4759C87.341 19.6759 86.4378 19.8113 85.4224 19.8811C84.4102 19.9509 82.8613 19.9842 80.7907 19.9842C78.1516 19.9842 76.2858 19.8936 75.1945 19.7155C74.0921 19.5415 73.2329 19.1812 72.5982 18.6406C72.1746 18.2708 71.8369 17.7959 71.5937 17.221C71.3638 16.6366 71.212 15.8721 71.1163 14.9254C71.0294 14.0432 70.9809 12.2996 70.9809 9.69466C70.9809 7.92193 71.0184 6.59082 71.0976 5.68674C71.168 4.78787 71.3121 3.98796 71.531 3.26823C71.9776 1.77359 72.9106 0.864314 74.3539 0.541431C75.9217 0.190426 78.3309 0.0175285 81.5872 0.0175285C83.5268 0.0175285 85.0516 0.0768977 86.1727 0.197718C87.3003 0.326872 88.2155 0.526851 88.9516 0.812238C90.1144 1.27364 90.8273 2.28603 91.0703 3.82547C91.2035 4.59206 91.2684 4.7962 91.2718 6.13981H85.6765C85.671 5.58779 85.6512 5.79714 85.6017 5.60341C85.5544 5.40968 85.4641 5.24824 85.3201 5.11283C85.0637 4.87744 84.517 4.72537 83.6764 4.66913C82.8986 4.61393 82.6819 4.58476 81.1857 4.58476C79.5685 4.58476 79.3342 4.63268 78.6411 4.72537C77.9546 4.81391 77.4783 4.99617 77.2231 5.25344C76.9722 5.50965 76.7962 5.95233 76.7093 6.54914C76.6158 7.15949 76.5718 8.46353 76.5718 9.92379C76.5718 11.5611 76.6158 12.7568 76.7093 13.4047C76.7962 14.0557 76.9689 14.5212 77.222 14.7754C77.4783 15.0347 77.8094 15.1899 78.2165 15.242C78.6279 15.293 78.9909 15.3649 81.1604 15.3743C83.2881 15.3899 83.6643 15.3284 84.1176 15.3014C84.5719 15.2659 84.9427 15.1795 85.2111 15.0347C85.4366 14.9191 85.6017 14.7629 85.6941 14.4869C85.7864 14.2056 85.8326 13.3432 85.8326 12.7839C85.8326 12.6964 85.8326 12.5183 85.8271 12.2485H80.6049L80.6049 8.70205Z" fill="white"></path><path fill-rule="evenodd" clip-rule="evenodd" d="M47.5808 0.30249H56.9077L62.5843 14.1292H62.8593V0.30249H68.9189V19.7036H59.6613L53.9472 5.86858H53.5963L53.6282 19.7026H47.5808V0.30249Z" fill="white"></path><path fill-rule="evenodd" clip-rule="evenodd" d="M0 0.30164H5.81751V7.23737H14.5305V0.30164H20.3557V19.7027H14.5305V11.6046H5.81637V19.7027H0V0.30164Z" fill="white"></path><path fill-rule="evenodd" clip-rule="evenodd" d="M22.4176 19.7021H28.6938L33.585 5.67857H34.3815L37.5136 15.4119L32.97 15.4213L34.7258 19.7406L45.5148 19.7417L38.551 0.295784H29.3561L22.4176 19.7021Z" fill="white"></path><path fill-rule="evenodd" clip-rule="evenodd" d="M138.235 19.7038H144.499L149.383 5.68025H150.201L153.335 15.4136L148.787 15.423L150.549 19.7423L161.323 19.7434L154.353 0.297482H145.168L138.235 19.7038Z" fill="white"></path><path fill-rule="evenodd" clip-rule="evenodd" d="M107.883 13.0736H113.697C113.727 14.0173 113.742 14.6276 113.742 14.913C113.742 16.4066 113.555 16.7139 113.191 17.5565C112.791 18.5002 111.999 19.1449 110.82 19.4876C109.649 19.8375 107.618 20 104.73 20C101.705 20 99.5452 19.924 98.247 19.7906C96.9686 19.6448 95.995 19.374 95.3416 18.9616C94.7607 18.5918 94.3152 18.1012 94.039 17.4753C93.753 16.842 93.5604 15.9921 93.4758 14.8964C93.3998 14.0173 93.3669 12.4258 93.3669 10.1239C93.3669 7.87627 93.3998 6.25456 93.4758 5.26091C93.5494 4.26623 93.6826 3.49443 93.8894 2.94657C94.3152 1.71753 95.2261 0.912406 96.5781 0.547861C97.9323 0.185398 100.664 0 104.772 0C106.832 0.00104156 108.319 0.0614633 109.247 0.171858C110.185 0.288513 110.932 0.500988 111.478 0.812414C112.208 1.22904 112.717 1.84564 113.01 2.6716C113.307 3.48714 113.455 3.82564 113.455 5.4286C113.455 5.50984 113.452 5.83689 113.449 6.391H107.63C107.609 5.7494 107.574 5.8973 107.53 5.67649C107.489 5.4588 107.398 5.27966 107.272 5.138C107.088 4.93699 106.61 4.79636 105.852 4.6995C105.104 4.61409 104.913 4.56097 103.385 4.56097C101.861 4.56097 101.769 4.60577 101.184 4.68805C100.605 4.77554 100.189 4.93177 99.95 5.16612C99.6552 5.45151 99.456 5.9275 99.3439 6.5993C99.2405 7.27423 99.1767 8.62723 99.1767 10.101C99.1767 11.5613 99.2327 12.8778 99.334 13.483C99.4253 14.0819 99.631 14.5141 99.9171 14.7755C100.189 15.0349 100.622 15.2099 101.217 15.2984C101.813 15.3786 101.916 15.4224 103.414 15.4224C105.274 15.4224 105.564 15.3901 106.18 15.3161C106.791 15.237 107.218 15.062 107.432 14.812C107.716 14.4777 107.867 14.2912 107.883 13.0736Z" fill="white"></path></svg>