<svg xmlns="http://www.w3.org/2000/svg" width="32" height="33" viewBox="0 0 32 33" fill="none"><path fill-rule="evenodd" clip-rule="evenodd" d="M0 16.4937C0 7.6571 7.16344 0.493652 16 0.493652C24.8366 0.493652 32 7.6571 32 16.4937C32 25.3302 24.8366 32.4937 16 32.4937C7.16344 32.4937 0 25.3302 0 16.4937ZM16 8.49365C20.4 8.49365 24 12.0937 24 16.4937C24 20.4937 21.1 23.8937 17.1 24.4937V18.7937H19L19.4 16.4937H17.2V14.9937C17.2 14.3937 17.5 13.7937 18.5 13.7937H19.5V11.7937C19.5 11.7937 18.6 11.5937 17.7 11.5937C15.9 11.5937 14.7 12.6937 14.7 14.6937V16.4937H12.7V18.7937H14.7V24.3937C10.9 23.7937 8 20.4937 8 16.4937C8 12.0937 11.6 8.49365 16 8.49365Z" fill="white"></path></svg>